<svg xmlns="http://www.w3.org/2000/svg" xmlns:xlink="http://www.w3.org/1999/xlink" version="1.1" id="Your_Icon" x="0px" y="0px" width="100px" height="100px" viewBox="0 0 100 100" enable-background="new 0 0 100 100" xml:space="preserve">
<path d="M56.88,77.065v6.538c0,0.862-3.079,2.269-6.88,2.269c-3.799,0-6.879-1.467-6.879-2.329V48.256h0.035  c-0.024-0.054-0.035-0.108-0.035-0.164c0-0.885,3.08-1.603,6.879-1.603s6.88,0.718,6.88,1.603c0,0.056-0.012,0.11-0.035,0.164h0.035  v6.052c-1.042,0.341-2.934,0.669-5.519,0.669v0.9c1.629,0,3.931-0.155,5.519-0.627v4.512c-1.041,0.34-2.933,0.668-5.519,0.668v0.9  c1.629,0,3.931-0.155,5.519-0.627v4.512c-1.041,0.341-2.933,0.669-5.519,0.669v0.9c1.629,0,3.931-0.155,5.519-0.627v4.512  c-1.041,0.341-2.933,0.669-5.519,0.669v0.9c1.629,0,3.931-0.156,5.519-0.627v4.512c-1.041,0.341-2.933,0.669-5.519,0.669v0.899  C52.99,77.691,55.292,77.536,56.88,77.065z M65.782,28.426c0,1.739-3.102,2.843-6.941,3.469V84.48c0,1.437-3.137,2.941-6.661,3.41  v7.76c0,0.152-0.059,0.299-0.163,0.41c-0.07,0.075-0.728,0.734-2.017,0.734c-1.33,0-1.961-0.672-2.028-0.748  c-0.097-0.109-0.149-0.251-0.149-0.396v-7.76c-3.525-0.469-6.662-1.974-6.662-3.41V31.895c-3.841-0.626-6.942-1.729-6.942-3.469  c0-1.94,3.861-3.089,8.303-3.666V8.969c-2.425-0.485-4.338-1.287-4.338-2.551c0-2.541,7.73-3.213,11.817-3.213  c4.088,0,11.818,0.672,11.818,3.213c0,1.264-1.913,2.065-4.338,2.551V24.76C61.922,25.337,65.782,26.485,65.782,28.426z M50,8.431  c7.424,0,10.618-1.527,10.618-2.013S57.424,4.405,50,4.405c-7.423,0-10.617,1.527-10.617,2.013S42.577,8.431,50,8.431z M50,9.631  c-1.729,0-4.107-0.121-6.279-0.452v18.799c0.33,0.367,2.477,1.037,6.279,1.037s5.95-0.67,6.28-1.037V9.179  C54.108,9.51,51.729,9.631,50,9.631z M50.979,88.039h-1.958v7.322c0.169,0.1,0.487,0.233,0.979,0.233c0.478,0,0.8-0.135,0.979-0.24  V88.039z M57.643,84.455l-0.002-52.377L57.426,32.1c-0.998,0.129-2.023,0.229-3.041,0.302l-0.354,0.035l-2.076,0.125  c-0.012,0.001-0.023,0.001-0.036,0.001h-4.232c-0.017,0-0.034-0.001-0.052-0.002l-1.251-0.108c-1.3-0.077-2.627-0.197-3.906-0.365  l-0.117-0.011V84.48c0.152,0.55,3.2,2.359,7.641,2.359C54.441,86.84,57.488,85.03,57.643,84.455z M64.582,28.426  c0-0.711-2.422-1.848-7.102-2.478v2.096c0,0.76-0.812,1.314-2.482,1.695c-1.342,0.307-3.117,0.475-4.998,0.475  c-0.766,0-7.479-0.061-7.479-2.17v-2.096c-4.68,0.629-7.103,1.767-7.103,2.478c0,0.688,2.263,1.776,6.647,2.417l3.562,0.339  l1.236,0.107c0.985,0.047,2.028,0.073,3.137,0.073c1.1,0,2.135-0.026,3.112-0.072l0.823-0.049l3.979-0.396  C62.312,30.205,64.582,29.115,64.582,28.426z"/>
</svg>