  0
SECTION
  2
HEADER
  9
$ACADVER
  1
AC1009
  9
$DWGCODEPAGE
  3
ansi_1252
  9
$INSBASE
 10
0.0
 20
0.0
 30
0.0
  9
$EXTMIN
 10
0.0
 20
0.0
 30
0.0
  9
$EXTMAX
 10
5.116573860157091
 20
1.475000000000019
 30
0.0
  9
$LIMMIN
 10
0.0
 20
0.0
  9
$LIMMAX
 10
12.0
 20
9.0
  9
$ORTHOMODE
 70
     0
  9
$REGENMODE
 70
     1
  9
$FILLMODE
 70
     1
  9
$QTEXTMODE
 70
     0
  9
$MIRRTEXT
 70
     1
  9
$DRAGMODE
 70
     2
  9
$LTSCALE
 40
1.0
  9
$OSMODE
 70
    37
  9
$ATTMODE
 70
     1
  9
$TEXTSIZE
 40
0.2
  9
$TRACEWID
 40
0.05
  9
$TEXTSTYLE
  7
STANDARD
  9
$CLAYER
  8
0
  9
$CELTYPE
  6
BYLAYER
  9
$CECOLOR
 62
   256
  9
$DIMSCALE
 40
1.0
  9
$DIMASZ
 40
0.18
  9
$DIMEXO
 40
0.0625
  9
$DIMDLI
 40
0.38
  9
$DIMRND
 40
0.0
  9
$DIMDLE
 40
0.0
  9
$DIMEXE
 40
0.18
  9
$DIMTP
 40
0.0
  9
$DIMTM
 40
0.0
  9
$DIMTXT
 40
0.18
  9
$DIMCEN
 40
0.09
  9
$DIMTSZ
 40
0.0
  9
$DIMTOL
 70
     0
  9
$DIMLIM
 70
     0
  9
$DIMTIH
 70
     1
  9
$DIMTOH
 70
     1
  9
$DIMSE1
 70
     0
  9
$DIMSE2
 70
     0
  9
$DIMTAD
 70
     0
  9
$DIMZIN
 70
     0
  9
$DIMBLK
  1

  9
$DIMASO
 70
     1
  9
$DIMSHO
 70
     1
  9
$DIMPOST
  1

  9
$DIMAPOST
  1

  9
$DIMALT
 70
     0
  9
$DIMALTD
 70
     2
  9
$DIMALTF
 40
25.4
  9
$DIMLFAC
 40
1.0
  9
$DIMTOFL
 70
     0
  9
$DIMTVP
 40
0.0
  9
$DIMTIX
 70
     0
  9
$DIMSOXD
 70
     0
  9
$DIMSAH
 70
     0
  9
$DIMBLK1
  1

  9
$DIMBLK2
  1

  9
$DIMSTYLE
  2
STANDARD
  9
$DIMCLRD
 70
     0
  9
$DIMCLRE
 70
     0
  9
$DIMCLRT
 70
     0
  9
$DIMTFAC
 40
1.0
  9
$DIMGAP
 40
0.09
  9
$LUNITS
 70
     2
  9
$LUPREC
 70
     4
  9
$SKETCHINC
 40
0.1
  9
$FILLETRAD
 40
0.5
  9
$AUNITS
 70
     0
  9
$AUPREC
 70
     0
  9
$MENU
  1
.
  9
$ELEVATION
 40
0.0
  9
$PELEVATION
 40
0.0
  9
$THICKNESS
 40
0.0
  9
$LIMCHECK
 70
     0
  9
$CHAMFERA
 40
0.5
  9
$CHAMFERB
 40
0.5
  9
$SKPOLY
 70
     0
  9
$TDCREATE
 40
2455672.535801146
  9
$TDUPDATE
 40
2455672.535801157
  9
$TDINDWG
 40
0.0000000116
  9
$TDUSRTIMER
 40
0.0000000116
  9
$USRTIMER
 70
     1
  9
$ANGBASE
 50
0.0
  9
$ANGDIR
 70
     0
  9
$PDMODE
 70
     0
  9
$PDSIZE
 40
0.0
  9
$PLINEWID
 40
0.0
  9
$COORDS
 70
     1
  9
$SPLFRAME
 70
     0
  9
$SPLINETYPE
 70
     6
  9
$SPLINESEGS
 70
     8
  9
$ATTDIA
 70
     0
  9
$ATTREQ
 70
     1
  9
$HANDLING
 70
     1
  9
$HANDSEED
  5
96
  9
$SURFTAB1
 70
     6
  9
$SURFTAB2
 70
     6
  9
$SURFTYPE
 70
     6
  9
$SURFU
 70
     6
  9
$SURFV
 70
     6
  9
$UCSNAME
  2

  9
$UCSORG
 10
0.0
 20
0.0
 30
0.0
  9
$UCSXDIR
 10
1.0
 20
0.0
 30
0.0
  9
$UCSYDIR
 10
0.0
 20
1.0
 30
0.0
  9
$PUCSNAME
  2

  9
$PUCSORG
 10
0.0
 20
0.0
 30
0.0
  9
$PUCSXDIR
 10
1.0
 20
0.0
 30
0.0
  9
$PUCSYDIR
 10
0.0
 20
1.0
 30
0.0
  9
$USERI1
 70
     0
  9
$USERI2
 70
     0
  9
$USERI3
 70
     0
  9
$USERI4
 70
     0
  9
$USERI5
 70
     0
  9
$USERR1
 40
0.0
  9
$USERR2
 40
0.0
  9
$USERR3
 40
0.0
  9
$USERR4
 40
0.0
  9
$USERR5
 40
0.0
  9
$WORLDVIEW
 70
     1
  9
$SHADEDGE
 70
     3
  9
$SHADEDIF
 70
    70
  9
$TILEMODE
 70
     1
  9
$MAXACTVP
 70
    64
  9
$PLIMCHECK
 70
     0
  9
$PEXTMIN
 10
1.000000000000000E+20
 20
1.000000000000000E+20
 30
1.000000000000000E+20
  9
$PEXTMAX
 10
-1.000000000000000E+20
 20
-1.000000000000000E+20
 30
-1.000000000000000E+20
  9
$PLIMMIN
 10
0.0
 20
0.0
  9
$PLIMMAX
 10
12.0
 20
9.0
  9
$UNITMODE
 70
     0
  9
$VISRETAIN
 70
     1
  9
$PLINEGEN
 70
     0
  9
$PSLTSCALE
 70
     1
  0
ENDSEC
  0
SECTION
  2
TABLES
  0
TABLE
  2
VPORT
 70
     1
  0
VPORT
  2
*ACTIVE
 70
     0
 10
0.0
 20
0.0
 11
1.0
 21
1.0
 12
2.558286930078546
 22
0.7375000000000096
 13
0.0
 23
0.0
 14
0.5
 24
0.5
 15
0.5
 25
0.5
 16
0.0
 26
0.0
 36
1.0
 17
0.0
 27
0.0
 37
0.0
 40
1.504500000000019
 41
3.468863634004763
 42
50.0
 43
0.0
 44
0.0
 50
0.0
 51
0.0
 71
     0
 72
   100
 73
     1
 74
     3
 75
     0
 76
     0
 77
     0
 78
     0
  0
ENDTAB
  0
TABLE
  2
LTYPE
 70
     1
  0
LTYPE
  2
CONTINUOUS
 70
     0
  3
Solid line
 72
    65
 73
     0
 40
0.0
  0
ENDTAB
  0
TABLE
  2
LAYER
 70
     3
  0
LAYER
  2
0
 70
     0
 62
     7
  6
CONTINUOUS
  0
LAYER
  2
THROUGH-CUT-INSIDE
 70
     0
 62
    15
  6
CONTINUOUS
  0
LAYER
  2
THROUGH-CUT-OUTSIDE-ADD-TA
 70
     0
 62
    98
  6
CONTINUOUS
  0
ENDTAB
  0
TABLE
  2
STYLE
 70
     1
  0
STYLE
  2
STANDARD
 70
     0
 40
0.0
 41
1.0
 50
0.0
 71
     0
 42
0.2
  3
txt
  4

  0
ENDTAB
  0
TABLE
  2
VIEW
 70
     0
  0
ENDTAB
  0
TABLE
  2
UCS
 70
     0
  0
ENDTAB
  0
TABLE
  2
APPID
 70
     1
  0
APPID
  2
ACAD
 70
     0
  0
ENDTAB
  0
TABLE
  2
DIMSTYLE
 70
     1
  0
DIMSTYLE
  2
STANDARD
 70
     0
  3

  4

  5

  6

  7

 40
1.0
 41
0.18
 42
0.0625
 43
0.38
 44
0.18
 45
0.0
 46
0.0
 47
0.0
 48
0.0
140
0.18
141
0.09
142
0.0
143
25.4
144
1.0
145
0.0
146
1.0
147
0.09
 71
     0
 72
     0
 73
     1
 74
     1
 75
     0
 76
     0
 77
     0
 78
     0
170
     0
171
     2
172
     0
173
     0
174
     0
175
     0
176
     0
177
     0
178
     0
  0
ENDTAB
  0
ENDSEC
  0
SECTION
  2
BLOCKS
  0
BLOCK
  8
0
  2
$MODEL_SPACE
 70
     0
 10
0.0
 20
0.0
 30
0.0
  3
$MODEL_SPACE
  1

  0
ENDBLK
  5
21
  8
0
  0
BLOCK
 67
     1
  8
0
  2
$PAPER_SPACE
 70
     0
 10
0.0
 20
0.0
 30
0.0
  3
$PAPER_SPACE
  1

  0
ENDBLK
  5
1D
 67
     1
  8
0
  0
ENDSEC
  0
SECTION
  2
ENTITIES
  0
LINE
  5
3C
  8
THROUGH-CUT-INSIDE
 10
3.516573860157095
 20
1.078875593680829
 30
0.0
 11
3.516573860157095
 21
0.5
 31
0.0
  0
LINE
  5
3D
  8
THROUGH-CUT-INSIDE
 10
3.516573860157095
 20
0.5
 30
0.0
 11
3.646573860157105
 21
0.5
 31
0.0
  0
LINE
  5
3E
  8
THROUGH-CUT-INSIDE
 10
3.646573860157105
 20
0.5
 30
0.0
 11
3.646573860157105
 21
1.078875593680829
 31
0.0
  0
LINE
  5
3F
  8
THROUGH-CUT-INSIDE
 10
3.646573860157105
 20
1.078875593680829
 30
0.0
 11
3.516573860157095
 21
1.078875593680829
 31
0.0
  0
LINE
  5
40
  8
THROUGH-CUT-INSIDE
 10
4.65657386015711
 20
1.078875593680829
 30
0.0
 11
4.65657386015711
 21
0.5
 31
0.0
  0
LINE
  5
41
  8
THROUGH-CUT-INSIDE
 10
4.65657386015711
 20
0.5
 30
0.0
 11
4.526573860157114
 21
0.5
 31
0.0
  0
LINE
  5
42
  8
THROUGH-CUT-INSIDE
 10
4.526573860157114
 20
0.5
 30
0.0
 11
4.526573860157114
 21
1.078875593680829
 31
0.0
  0
LINE
  5
43
  8
THROUGH-CUT-INSIDE
 10
4.526573860157114
 20
1.078875593680829
 30
0.0
 11
4.65657386015711
 21
1.078875593680829
 31
0.0
  0
ARC
  5
45
  8
THROUGH-CUT-OUTSIDE-ADD-TA
 10
0.25
 20
0.25
 30
0.0
 40
0.25
 50
180.0
 51
270.0
  0
LINE
  5
46
  8
THROUGH-CUT-OUTSIDE-ADD-TA
 10
0.25
 20
0.0
 30
0.0
 11
1.810000000000002
 21
0.0
 31
0.0
  0
ARC
  5
47
  8
THROUGH-CUT-OUTSIDE-ADD-TA
 10
1.810000000000002
 20
0.25
 30
0.0
 40
0.25
 50
270.0
 51
0.0
  0
LINE
  5
48
  8
THROUGH-CUT-OUTSIDE-ADD-TA
 10
2.060000000000002
 20
0.25
 30
0.0
 11
2.060000000000002
 21
0.75
 31
0.0
  0
ARC
  5
49
  8
THROUGH-CUT-OUTSIDE-ADD-TA
 10
1.810000000000002
 20
0.75
 30
0.0
 40
0.25
 50
0.0
 51
90.0
  0
LINE
  5
4A
  8
THROUGH-CUT-OUTSIDE-ADD-TA
 10
1.810000000000002
 20
1.0
 30
0.0
 11
0.25
 21
1.0
 31
0.0
  0
ARC
  5
4B
  8
THROUGH-CUT-OUTSIDE-ADD-TA
 10
0.25
 20
0.75
 30
0.0
 40
0.25
 50
90.00000000000001
 51
180.0
  0
LINE
  5
4C
  8
THROUGH-CUT-OUTSIDE-ADD-TA
 10
0.0
 20
0.75
 30
0.0
 11
0.0
 21
0.25
 31
0.0
  0
LINE
  5
4D
  8
THROUGH-CUT-OUTSIDE-ADD-TA
 10
3.898185512508796
 20
0.875
 30
0.0
 11
3.856573860157102
 21
0.875
 31
0.0
  0
LINE
  5
4E
  8
THROUGH-CUT-OUTSIDE-ADD-TA
 10
3.856573860157102
 20
0.875
 30
0.0
 11
3.856573860157098
 21
0.5
 31
0.0
  0
LINE
  5
4F
  8
THROUGH-CUT-OUTSIDE-ADD-TA
 10
3.856573860157098
 20
0.5
 30
0.0
 11
3.726573860157103
 21
0.5
 31
0.0
  0
LINE
  5
50
  8
THROUGH-CUT-OUTSIDE-ADD-TA
 10
3.726573860157103
 20
0.5
 30
0.0
 11
3.726573860157103
 21
1.412500000000009
 31
0.0
  0
ARC
  5
51
  8
THROUGH-CUT-OUTSIDE-ADD-TA
 10
3.664073860157103
 20
1.412500000000009
 30
0.0
 40
0.0625
 50
0.0
 51
89.9213909180864
  0
LINE
  5
52
  8
THROUGH-CUT-OUTSIDE-ADD-TA
 10
3.664159609336508
 20
1.47499994117659
 30
0.0
 11
3.518288899651907
 21
1.475000000000009
 31
0.0
  0
LINE
  5
53
  8
THROUGH-CUT-OUTSIDE-ADD-TA
 10
3.518288899651907
 20
1.475000000000009
 30
0.0
 11
3.376573860157094
 21
1.442634801089209
 31
0.0
  0
LINE
  5
54
  8
THROUGH-CUT-OUTSIDE-ADD-TA
 10
3.376573860157094
 20
1.442634801089209
 30
0.0
 11
3.376573860157094
 21
1.375
 31
0.0
  0
LINE
  5
55
  8
THROUGH-CUT-OUTSIDE-ADD-TA
 10
3.376573860157094
 20
1.375
 30
0.0
 11
3.436573860157097
 21
1.324999999999999
 31
0.0
  0
LINE
  5
56
  8
THROUGH-CUT-OUTSIDE-ADD-TA
 10
3.436573860157097
 20
1.324999999999999
 30
0.0
 11
3.436573860157097
 21
1.221563984202088
 31
0.0
  0
LINE
  5
57
  8
THROUGH-CUT-OUTSIDE-ADD-TA
 10
3.436573860157097
 20
1.221563984202088
 30
0.0
 11
3.436573860157097
 21
0.5
 31
0.0
  0
LINE
  5
58
  8
THROUGH-CUT-OUTSIDE-ADD-TA
 10
3.436573860157097
 20
0.5
 30
0.0
 11
3.306573860157101
 21
0.5
 31
0.0
  0
LINE
  5
59
  8
THROUGH-CUT-OUTSIDE-ADD-TA
 10
3.306573860157101
 20
0.5
 30
0.0
 11
3.306573860157101
 21
0.8750000000000302
 31
0.0
  0
LINE
  5
5A
  8
THROUGH-CUT-OUTSIDE-ADD-TA
 10
3.306573860157101
 20
0.8750000000000302
 30
0.0
 11
3.056573860157101
 21
0.8750000000000302
 31
0.0
  0
LINE
  5
5B
  8
THROUGH-CUT-OUTSIDE-ADD-TA
 10
3.056573860157101
 20
0.8750000000000302
 30
0.0
 11
3.056573860157101
 21
0.2500000000000006
 31
0.0
  0
ARC
  5
5C
  8
THROUGH-CUT-OUTSIDE-ADD-TA
 10
3.306573860157101
 20
0.2500000000000006
 30
0.0
 40
0.25
 50
180.0
 51
269.9999999999996
  0
LINE
  5
5D
  8
THROUGH-CUT-OUTSIDE-ADD-TA
 10
3.3065738601571
 20
0.0000000000000006
 30
0.0
 11
4.866573860157091
 21
0.0
 31
0.0
  0
ARC
  5
5E
  8
THROUGH-CUT-OUTSIDE-ADD-TA
 10
4.866573860157091
 20
0.25
 30
0.0
 40
0.25
 50
270.0
 51
0.0
  0
LINE
  5
5F
  8
THROUGH-CUT-OUTSIDE-ADD-TA
 10
5.116573860157091
 20
0.25
 30
0.0
 11
5.116573860157089
 21
0.875
 31
0.0
  0
LINE
  5
60
  8
THROUGH-CUT-OUTSIDE-ADD-TA
 10
5.116573860157089
 20
0.875
 30
0.0
 11
4.866573860157089
 21
0.875
 31
0.0
  0
LINE
  5
61
  8
THROUGH-CUT-OUTSIDE-ADD-TA
 10
4.866573860157089
 20
0.875
 30
0.0
 11
4.866573860157089
 21
0.5
 31
0.0
  0
LINE
  5
62
  8
THROUGH-CUT-OUTSIDE-ADD-TA
 10
4.866573860157089
 20
0.5
 30
0.0
 11
4.736573860157094
 21
0.5
 31
0.0
  0
LINE
  5
63
  8
THROUGH-CUT-OUTSIDE-ADD-TA
 10
4.736573860157094
 20
0.5
 30
0.0
 11
4.736573860157094
 21
1.221563984202088
 31
0.0
  0
LINE
  5
64
  8
THROUGH-CUT-OUTSIDE-ADD-TA
 10
4.736573860157094
 20
1.221563984202088
 30
0.0
 11
4.736573860157094
 21
1.324999999999999
 31
0.0
  0
LINE
  5
65
  8
THROUGH-CUT-OUTSIDE-ADD-TA
 10
4.736573860157094
 20
1.324999999999999
 30
0.0
 11
4.796573860157096
 21
1.375
 31
0.0
  0
LINE
  5
66
  8
THROUGH-CUT-OUTSIDE-ADD-TA
 10
4.796573860157096
 20
1.375
 30
0.0
 11
4.796573860157096
 21
1.442634801089209
 31
0.0
  0
LINE
  5
67
  8
THROUGH-CUT-OUTSIDE-ADD-TA
 10
4.796573860157096
 20
1.442634801089209
 30
0.0
 11
4.654858820662312
 21
1.475000000000009
 31
0.0
  0
LINE
  5
68
  8
THROUGH-CUT-OUTSIDE-ADD-TA
 10
4.654858820662312
 20
1.475000000000009
 30
0.0
 11
4.509073860157102
 21
1.475000000000009
 31
0.0
  0
ARC
  5
69
  8
THROUGH-CUT-OUTSIDE-ADD-TA
 10
4.509073860157102
 20
1.412500000000009
 30
0.0
 40
0.0625
 50
90.0
 51
180.0
  0
LINE
  5
6A
  8
THROUGH-CUT-OUTSIDE-ADD-TA
 10
4.446573860157102
 20
1.412500000000009
 30
0.0
 11
4.446573860157102
 21
0.5
 31
0.0
  0
LINE
  5
6B
  8
THROUGH-CUT-OUTSIDE-ADD-TA
 10
4.446573860157102
 20
0.5
 30
0.0
 11
4.316573860157106
 21
0.5
 31
0.0
  0
LINE
  5
6C
  8
THROUGH-CUT-OUTSIDE-ADD-TA
 10
4.316573860157106
 20
0.5
 30
0.0
 11
4.316573860157106
 21
0.875
 31
0.0
  0
LINE
  5
6D
  8
THROUGH-CUT-OUTSIDE-ADD-TA
 10
4.316573860157106
 20
0.875
 30
0.0
 11
4.274962207805416
 21
0.875
 31
0.0
  0
ARC
  5
6E
  8
THROUGH-CUT-OUTSIDE-ADD-TA
 10
4.230768033981256
 20
0.9191941738241596
 30
0.0
 40
0.0625000000000005
 50
135.0
 51
315.0
  0
LINE
  5
6F
  8
THROUGH-CUT-OUTSIDE-ADD-TA
 10
4.186573860157097
 20
0.9633883476483192
 30
0.0
 11
4.186573860157097
 21
1.412500000000019
 31
0.0
  0
LINE
  5
70
  8
THROUGH-CUT-OUTSIDE-ADD-TA
 10
4.186573860157097
 20
1.412500000000019
 30
0.0
 11
4.124073860157086
 21
1.475000000000019
 31
0.0
  0
LINE
  5
71
  8
THROUGH-CUT-OUTSIDE-ADD-TA
 10
4.124073860157086
 20
1.475000000000019
 30
0.0
 11
4.049073860157097
 21
1.475000000000019
 31
0.0
  0
LINE
  5
72
  8
THROUGH-CUT-OUTSIDE-ADD-TA
 10
4.049073860157097
 20
1.475000000000019
 30
0.0
 11
3.986573860157097
 21
1.412500000000019
 31
0.0
  0
LINE
  5
73
  8
THROUGH-CUT-OUTSIDE-ADD-TA
 10
3.986573860157097
 20
1.412500000000019
 30
0.0
 11
3.986573860157115
 21
0.9633883476483192
 31
0.0
  0
ARC
  5
74
  8
THROUGH-CUT-OUTSIDE-ADD-TA
 10
3.942379686332956
 20
0.9191941738241596
 30
0.0
 40
0.0625000000000005
 50
225.0
 51
45.0
  0
LINE
  5
75
  8
THROUGH-CUT-INSIDE
 10
1.6600000000001
 20
0.6616116523516737
 30
0.0
 11
1.660000000000101
 21
0.3383883476483049
 31
0.0
  0
ARC
  5
76
  8
THROUGH-CUT-INSIDE
 10
1.61580582617594
 20
0.2941941738241454
 30
0.0
 40
0.0625000000000018
 50
315.0000000000012
 51
44.99999999999888
  0
ARC
  5
77
  8
THROUGH-CUT-INSIDE
 10
1.615805826175949
 20
0.2941941738241596
 30
0.0
 40
0.0625000000000005
 50
224.9999999999863
 51
314.9999999999891
  0
LINE
  5
78
  8
THROUGH-CUT-INSIDE
 10
1.571611652351779
 20
0.2500000000000071
 30
0.0
 11
1.348388347648422
 21
0.2499999999999929
 31
0.0
  0
ARC
  5
79
  8
THROUGH-CUT-INSIDE
 10
1.304194173824262
 20
0.2941941738241454
 30
0.0
 40
0.0625000000000005
 50
134.9999999999997
 51
314.9999999999991
  0
LINE
  5
7A
  8
THROUGH-CUT-INSIDE
 10
1.260000000000103
 20
0.338388347648312
 30
0.0
 11
1.260000000000101
 21
0.661611652351688
 31
0.0
  0
ARC
  5
7B
  8
THROUGH-CUT-INSIDE
 10
1.304194173824261
 20
0.7058058261758475
 30
0.0
 40
0.062499999999998
 50
135.0
 51
224.9999999999977
  0
ARC
  5
7C
  8
THROUGH-CUT-INSIDE
 10
1.304194173824262
 20
0.7058058261758546
 30
0.0
 40
0.062499999999998
 50
44.99999999999741
 51
135.0000000000032
  0
LINE
  5
7D
  8
THROUGH-CUT-INSIDE
 10
1.348388347648422
 20
0.7500000000000071
 30
0.0
 11
1.57161165235178
 21
0.7499999999999929
 31
0.0
  0
ARC
  5
7E
  8
THROUGH-CUT-INSIDE
 10
1.61580582617594
 20
0.7058058261758262
 30
0.0
 40
0.0625000000000005
 50
314.9999999999997
 51
134.9999999999997
  0
LINE
  5
7F
  8
THROUGH-CUT-INSIDE
 10
1.130000000000102
 20
0.661611652351688
 30
0.0
 11
1.1300000000001
 21
0.338388347648312
 31
0.0
  0
ARC
  5
80
  8
THROUGH-CUT-INSIDE
 10
1.085805826175941
 20
0.2941941738241454
 30
0.0
 40
0.0625000000000005
 50
224.9999999999999
 51
45.00000000000054
  0
LINE
  5
81
  8
THROUGH-CUT-INSIDE
 10
1.041611652351781
 20
0.2499999999999929
 30
0.0
 11
1.018388347648422
 21
0.2499999999999929
 31
0.0
  0
ARC
  5
82
  8
THROUGH-CUT-INSIDE
 10
0.9741941738242694
 20
0.2941941738241525
 30
0.0
 40
0.062499999999993
 50
224.9999999999977
 51
314.9999999999977
  0
ARC
  5
83
  8
THROUGH-CUT-INSIDE
 10
0.9741941738242659
 20
0.2941941738241525
 30
0.0
 40
0.0624999999999905
 50
135.0000000000001
 51
225.0
  0
LINE
  5
84
  8
THROUGH-CUT-INSIDE
 10
0.9300000000001134
 20
0.3383883476483049
 30
0.0
 11
0.9300000000001116
 21
0.6616116523516808
 31
0.0
  0
ARC
  5
85
  8
THROUGH-CUT-INSIDE
 10
0.9741941738242641
 20
0.7058058261758404
 30
0.0
 40
0.062499999999998
 50
135.0000000000032
 51
225.0000000000066
  0
ARC
  5
86
  8
THROUGH-CUT-INSIDE
 10
0.9741941738242588
 20
0.7058058261758404
 30
0.0
 40
0.0624999999999955
 50
45.00000000000029
 51
135.0000000000003
  0
LINE
  5
87
  8
THROUGH-CUT-INSIDE
 10
1.018388347648415
 20
0.75
 30
0.0
 11
1.041611652351781
 21
0.7500000000000071
 31
0.0
  0
ARC
  5
88
  8
THROUGH-CUT-INSIDE
 10
1.085805826175941
 20
0.7058058261758546
 30
0.0
 40
0.0625000000000018
 50
315.0000000000014
 51
135.0000000000014
  0
LINE
  5
89
  8
THROUGH-CUT-INSIDE
 10
0.8000000000001197
 20
0.661611652351688
 30
0.0
 11
0.8000000000001233
 21
0.338388347648312
 31
0.0
  0
ARC
  5
8A
  8
THROUGH-CUT-INSIDE
 10
0.7558058261759637
 20
0.2941941738241454
 30
0.0
 40
0.0625000000000005
 50
224.9999999999999
 51
45.00000000000054
  0
LINE
  5
8B
  8
THROUGH-CUT-INSIDE
 10
0.7116116523518041
 20
0.2499999999999929
 30
0.0
 11
0.4883883476484314
 21
0.2499999999999929
 31
0.0
  0
ARC
  5
8C
  8
THROUGH-CUT-INSIDE
 10
0.4441941738242736
 20
0.2941941738241454
 30
0.0
 40
0.062499999999998
 50
134.9999999999996
 51
314.9999999999991
  0
LINE
  5
8D
  8
THROUGH-CUT-INSIDE
 10
0.4000000000001158
 20
0.3383883476483049
 30
0.0
 11
0.4000000000001158
 21
0.661611652351688
 31
0.0
  0
ARC
  5
8E
  8
THROUGH-CUT-INSIDE
 10
0.4441941738242736
 20
0.7058058261758475
 30
0.0
 40
0.0624999999999967
 50
135.0000000000034
 51
224.9999999999988
  0
ARC
  5
8F
  8
THROUGH-CUT-INSIDE
 10
0.4441941738242772
 20
0.7058058261758404
 30
0.0
 40
0.0625000000000005
 50
44.99999999999997
 51
135.0000000000011
  0
LINE
  5
90
  8
THROUGH-CUT-INSIDE
 10
0.4883883476484367
 20
0.75
 30
0.0
 11
0.7116116523518006
 21
0.75
 31
0.0
  0
ARC
  5
91
  8
THROUGH-CUT-INSIDE
 10
0.7558058261759673
 20
0.7058058261758475
 30
0.0
 40
0.0625000000000005
 50
45.0000000000046
 51
135.0000000000092
  0
ARC
  5
92
  8
THROUGH-CUT-INSIDE
 10
0.7558058261759619
 20
0.7058058261758475
 30
0.0
 40
0.0624999999999993
 50
314.9999999999988
 51
45.00000000000115
  0
ENDSEC
  0
EOF
