G04 MADE WITH FRITZING*
G04 WWW.FRITZING.ORG*
G04 DOUBLE SIDED*
G04 HOLES PLATED*
G04 CONTOUR ON CENTER OF CONTOUR VECTOR*
%ASAXBY*%
%FSLAX23Y23*%
%MOIN*%
%OFA0B0*%
%SFA1.0B1.0*%
%ADD10C,0.008*%
%LNCONTOUR*%
G90*
G70*
G54D10*
X34Y2095D02*
X35Y2095D01*
X36Y2095D01*
X37Y2095D01*
X38Y2095D01*
X39Y2095D01*
X40Y2095D01*
X41Y2095D01*
X42Y2095D01*
X43Y2095D01*
X44Y2095D01*
X45Y2095D01*
X46Y2095D01*
X47Y2095D01*
X48Y2095D01*
X49Y2095D01*
X50Y2095D01*
X51Y2095D01*
X52Y2095D01*
X53Y2095D01*
X54Y2095D01*
X55Y2095D01*
X56Y2095D01*
X57Y2095D01*
X58Y2095D01*
X59Y2095D01*
X60Y2095D01*
X61Y2095D01*
X62Y2095D01*
X63Y2095D01*
X64Y2095D01*
X65Y2095D01*
X66Y2095D01*
X67Y2095D01*
X68Y2095D01*
X69Y2095D01*
X70Y2095D01*
X71Y2095D01*
X72Y2095D01*
X73Y2095D01*
X74Y2095D01*
X75Y2095D01*
X76Y2095D01*
X77Y2095D01*
X78Y2095D01*
X79Y2095D01*
X80Y2095D01*
X81Y2095D01*
X82Y2095D01*
X83Y2095D01*
X84Y2095D01*
X85Y2095D01*
X86Y2095D01*
X87Y2095D01*
X88Y2095D01*
X89Y2095D01*
X90Y2095D01*
X91Y2095D01*
X92Y2095D01*
X93Y2095D01*
X94Y2095D01*
X95Y2095D01*
X96Y2095D01*
X97Y2095D01*
X98Y2095D01*
X99Y2095D01*
X100Y2095D01*
X101Y2095D01*
X102Y2095D01*
X103Y2095D01*
X104Y2095D01*
X105Y2095D01*
X106Y2095D01*
X107Y2095D01*
X108Y2095D01*
X109Y2095D01*
X110Y2095D01*
X111Y2095D01*
X112Y2095D01*
X113Y2095D01*
X114Y2095D01*
X115Y2095D01*
X116Y2095D01*
X117Y2095D01*
X118Y2095D01*
X119Y2095D01*
X120Y2095D01*
X121Y2095D01*
X122Y2095D01*
X123Y2095D01*
X124Y2095D01*
X125Y2095D01*
X126Y2095D01*
X127Y2095D01*
X128Y2095D01*
X129Y2095D01*
X130Y2095D01*
X131Y2095D01*
X132Y2095D01*
X133Y2095D01*
X134Y2095D01*
X135Y2095D01*
X136Y2095D01*
X137Y2095D01*
X138Y2095D01*
X139Y2095D01*
X140Y2095D01*
X141Y2095D01*
X142Y2095D01*
X143Y2095D01*
X144Y2095D01*
X145Y2095D01*
X146Y2095D01*
X147Y2095D01*
X148Y2095D01*
X149Y2095D01*
X150Y2095D01*
X151Y2095D01*
X152Y2095D01*
X153Y2095D01*
X154Y2095D01*
X155Y2095D01*
X156Y2095D01*
X157Y2095D01*
X158Y2095D01*
X159Y2095D01*
X160Y2095D01*
X161Y2095D01*
X162Y2095D01*
X163Y2095D01*
X164Y2095D01*
X165Y2095D01*
X166Y2095D01*
X167Y2095D01*
X168Y2095D01*
X169Y2095D01*
X170Y2095D01*
X171Y2095D01*
X172Y2095D01*
X173Y2095D01*
X174Y2095D01*
X175Y2095D01*
X176Y2095D01*
X177Y2095D01*
X178Y2095D01*
X179Y2095D01*
X180Y2095D01*
X181Y2095D01*
X182Y2095D01*
X183Y2095D01*
X184Y2095D01*
X185Y2095D01*
X186Y2095D01*
X187Y2095D01*
X188Y2095D01*
X189Y2095D01*
X190Y2095D01*
X191Y2095D01*
X192Y2095D01*
X193Y2095D01*
X194Y2095D01*
X195Y2095D01*
X196Y2095D01*
X197Y2095D01*
X198Y2095D01*
X199Y2095D01*
X200Y2095D01*
X201Y2095D01*
X202Y2095D01*
X203Y2095D01*
X204Y2095D01*
X205Y2095D01*
X206Y2095D01*
X207Y2095D01*
X208Y2095D01*
X209Y2095D01*
X210Y2095D01*
X211Y2095D01*
X212Y2095D01*
X213Y2095D01*
X214Y2095D01*
X215Y2095D01*
X216Y2095D01*
X217Y2095D01*
X218Y2095D01*
X219Y2095D01*
X220Y2095D01*
X221Y2095D01*
X222Y2095D01*
X223Y2095D01*
X224Y2095D01*
X225Y2095D01*
X226Y2095D01*
X227Y2095D01*
X228Y2095D01*
X229Y2095D01*
X230Y2095D01*
X231Y2095D01*
X232Y2095D01*
X233Y2095D01*
X234Y2095D01*
X235Y2095D01*
X236Y2095D01*
X237Y2095D01*
X238Y2095D01*
X239Y2095D01*
X240Y2095D01*
X241Y2095D01*
X242Y2095D01*
X243Y2095D01*
X244Y2095D01*
X245Y2095D01*
X246Y2095D01*
X247Y2095D01*
X248Y2095D01*
X249Y2095D01*
X250Y2095D01*
X251Y2095D01*
X252Y2095D01*
X253Y2095D01*
X254Y2095D01*
X255Y2095D01*
X256Y2095D01*
X257Y2095D01*
X258Y2095D01*
X259Y2095D01*
X260Y2095D01*
X261Y2095D01*
X262Y2095D01*
X263Y2095D01*
X264Y2095D01*
X265Y2095D01*
X266Y2095D01*
X267Y2095D01*
X268Y2095D01*
X269Y2095D01*
X270Y2095D01*
X271Y2095D01*
X272Y2095D01*
X273Y2095D01*
X274Y2095D01*
X275Y2095D01*
X276Y2095D01*
X277Y2095D01*
X278Y2095D01*
X279Y2095D01*
X280Y2095D01*
X281Y2095D01*
X282Y2095D01*
X283Y2095D01*
X284Y2095D01*
X285Y2095D01*
X286Y2095D01*
X287Y2095D01*
X288Y2095D01*
X289Y2095D01*
X290Y2095D01*
X291Y2095D01*
X292Y2095D01*
X293Y2095D01*
X294Y2095D01*
X295Y2095D01*
X296Y2095D01*
X297Y2095D01*
X298Y2095D01*
X299Y2095D01*
X300Y2095D01*
X301Y2095D01*
X302Y2095D01*
X303Y2095D01*
X304Y2095D01*
X305Y2095D01*
X306Y2095D01*
X307Y2095D01*
X308Y2095D01*
X309Y2095D01*
X310Y2095D01*
X311Y2095D01*
X312Y2095D01*
X313Y2095D01*
X314Y2095D01*
X315Y2095D01*
X316Y2095D01*
X317Y2095D01*
X318Y2095D01*
X319Y2095D01*
X320Y2095D01*
X321Y2095D01*
X322Y2095D01*
X323Y2095D01*
X324Y2095D01*
X325Y2095D01*
X326Y2095D01*
X327Y2095D01*
X328Y2095D01*
X329Y2095D01*
X330Y2095D01*
X331Y2095D01*
X332Y2095D01*
X333Y2095D01*
X334Y2095D01*
X335Y2095D01*
X336Y2095D01*
X337Y2095D01*
X338Y2095D01*
X339Y2095D01*
X340Y2095D01*
X341Y2095D01*
X342Y2095D01*
X343Y2095D01*
X344Y2095D01*
X345Y2095D01*
X346Y2095D01*
X347Y2095D01*
X348Y2095D01*
X349Y2095D01*
X350Y2095D01*
X351Y2095D01*
X352Y2095D01*
X353Y2095D01*
X354Y2095D01*
X355Y2095D01*
X356Y2095D01*
X357Y2095D01*
X358Y2095D01*
X359Y2095D01*
X360Y2095D01*
X361Y2095D01*
X362Y2095D01*
X363Y2095D01*
X364Y2095D01*
X365Y2095D01*
X366Y2095D01*
X367Y2095D01*
X368Y2095D01*
X369Y2095D01*
X370Y2095D01*
X371Y2095D01*
X372Y2095D01*
X373Y2095D01*
X374Y2095D01*
X375Y2095D01*
X376Y2095D01*
X377Y2095D01*
X378Y2095D01*
X379Y2095D01*
X380Y2095D01*
X381Y2095D01*
X382Y2095D01*
X383Y2095D01*
X384Y2095D01*
X385Y2095D01*
X386Y2095D01*
X387Y2095D01*
X388Y2095D01*
X389Y2095D01*
X390Y2095D01*
X391Y2095D01*
X392Y2095D01*
X393Y2095D01*
X394Y2095D01*
X395Y2095D01*
X396Y2095D01*
X397Y2095D01*
X398Y2095D01*
X399Y2095D01*
X400Y2095D01*
X401Y2095D01*
X402Y2095D01*
X403Y2095D01*
X404Y2095D01*
X405Y2095D01*
X406Y2095D01*
X407Y2095D01*
X408Y2095D01*
X409Y2095D01*
X410Y2095D01*
X411Y2095D01*
X412Y2095D01*
X413Y2095D01*
X414Y2095D01*
X415Y2095D01*
X416Y2095D01*
X417Y2095D01*
X418Y2095D01*
X419Y2095D01*
X420Y2095D01*
X421Y2095D01*
X422Y2095D01*
X423Y2095D01*
X424Y2095D01*
X425Y2095D01*
X426Y2095D01*
X427Y2095D01*
X428Y2095D01*
X429Y2095D01*
X430Y2095D01*
X431Y2095D01*
X432Y2095D01*
X433Y2095D01*
X434Y2095D01*
X435Y2095D01*
X436Y2095D01*
X437Y2095D01*
X438Y2095D01*
X439Y2095D01*
X440Y2095D01*
X441Y2095D01*
X442Y2095D01*
X443Y2095D01*
X444Y2095D01*
X445Y2095D01*
X446Y2095D01*
X447Y2095D01*
X448Y2095D01*
X449Y2095D01*
X450Y2095D01*
X451Y2095D01*
X452Y2095D01*
X453Y2095D01*
X454Y2095D01*
X455Y2095D01*
X456Y2095D01*
X457Y2095D01*
X458Y2095D01*
X459Y2095D01*
X460Y2095D01*
X461Y2095D01*
X462Y2095D01*
X463Y2095D01*
X464Y2095D01*
X465Y2095D01*
X466Y2095D01*
X467Y2095D01*
X468Y2095D01*
X469Y2095D01*
X470Y2095D01*
X471Y2095D01*
X472Y2095D01*
X473Y2095D01*
X474Y2095D01*
X475Y2095D01*
X476Y2095D01*
X477Y2095D01*
X478Y2095D01*
X479Y2095D01*
X480Y2095D01*
X481Y2095D01*
X482Y2095D01*
X483Y2095D01*
X484Y2095D01*
X485Y2095D01*
X486Y2095D01*
X487Y2095D01*
X488Y2095D01*
X489Y2095D01*
X490Y2095D01*
X491Y2095D01*
X492Y2095D01*
X493Y2095D01*
X494Y2095D01*
X495Y2095D01*
X496Y2095D01*
X497Y2095D01*
X498Y2095D01*
X499Y2095D01*
X500Y2095D01*
X501Y2095D01*
X502Y2095D01*
X503Y2095D01*
X504Y2095D01*
X505Y2095D01*
X506Y2095D01*
X507Y2095D01*
X508Y2095D01*
X509Y2095D01*
X510Y2095D01*
X511Y2095D01*
X512Y2095D01*
X513Y2095D01*
X514Y2095D01*
X515Y2095D01*
X516Y2095D01*
X517Y2095D01*
X518Y2095D01*
X519Y2095D01*
X520Y2095D01*
X521Y2095D01*
X522Y2095D01*
X523Y2095D01*
X524Y2095D01*
X525Y2095D01*
X526Y2095D01*
X527Y2095D01*
X528Y2095D01*
X529Y2095D01*
X530Y2095D01*
X531Y2095D01*
X532Y2095D01*
X533Y2095D01*
X534Y2095D01*
X535Y2095D01*
X536Y2095D01*
X537Y2095D01*
X538Y2095D01*
X539Y2095D01*
X540Y2095D01*
X541Y2095D01*
X542Y2095D01*
X543Y2095D01*
X544Y2095D01*
X545Y2095D01*
X546Y2095D01*
X547Y2095D01*
X548Y2095D01*
X549Y2095D01*
X550Y2095D01*
X551Y2095D01*
X552Y2095D01*
X553Y2095D01*
X554Y2095D01*
X555Y2095D01*
X556Y2095D01*
X557Y2095D01*
X558Y2095D01*
X559Y2095D01*
X560Y2095D01*
X561Y2095D01*
X562Y2095D01*
X563Y2095D01*
X564Y2095D01*
X565Y2095D01*
X566Y2095D01*
X567Y2095D01*
X568Y2095D01*
X569Y2095D01*
X570Y2095D01*
X571Y2095D01*
X572Y2095D01*
X573Y2095D01*
X574Y2095D01*
X575Y2095D01*
X576Y2095D01*
X577Y2095D01*
X578Y2095D01*
X579Y2095D01*
X580Y2095D01*
X581Y2095D01*
X582Y2095D01*
X583Y2095D01*
X584Y2095D01*
X585Y2095D01*
X586Y2095D01*
X587Y2095D01*
X588Y2095D01*
X589Y2095D01*
X590Y2095D01*
X591Y2095D01*
X592Y2095D01*
X593Y2095D01*
X594Y2095D01*
X595Y2095D01*
X596Y2095D01*
X597Y2095D01*
X598Y2095D01*
X599Y2095D01*
X600Y2095D01*
X601Y2095D01*
X602Y2095D01*
X603Y2095D01*
X604Y2095D01*
X605Y2095D01*
X606Y2095D01*
X607Y2095D01*
X608Y2095D01*
X609Y2095D01*
X610Y2095D01*
X611Y2095D01*
X612Y2095D01*
X613Y2095D01*
X614Y2095D01*
X615Y2095D01*
X616Y2095D01*
X617Y2095D01*
X618Y2095D01*
X619Y2095D01*
X620Y2095D01*
X621Y2095D01*
X622Y2095D01*
X623Y2095D01*
X624Y2095D01*
X625Y2095D01*
X626Y2095D01*
X627Y2095D01*
X628Y2095D01*
X629Y2095D01*
X630Y2095D01*
X631Y2095D01*
X632Y2095D01*
X633Y2095D01*
X634Y2095D01*
X635Y2095D01*
X636Y2095D01*
X637Y2095D01*
X638Y2095D01*
X639Y2095D01*
X640Y2095D01*
X641Y2095D01*
X642Y2095D01*
X643Y2095D01*
X644Y2095D01*
X645Y2095D01*
X646Y2095D01*
X647Y2095D01*
X648Y2095D01*
X649Y2095D01*
X650Y2095D01*
X651Y2095D01*
X652Y2095D01*
X653Y2095D01*
X654Y2095D01*
X655Y2095D01*
X656Y2095D01*
X657Y2095D01*
X658Y2095D01*
X659Y2095D01*
X660Y2095D01*
X661Y2095D01*
X662Y2095D01*
X663Y2095D01*
X664Y2095D01*
X665Y2095D01*
X666Y2095D01*
X667Y2095D01*
X668Y2095D01*
X669Y2095D01*
X670Y2095D01*
X671Y2095D01*
X672Y2095D01*
X673Y2095D01*
X674Y2095D01*
X675Y2095D01*
X676Y2095D01*
X677Y2095D01*
X678Y2095D01*
X679Y2095D01*
X680Y2095D01*
X681Y2095D01*
X682Y2095D01*
X683Y2095D01*
X684Y2095D01*
X685Y2095D01*
X686Y2095D01*
X687Y2095D01*
X688Y2095D01*
X689Y2095D01*
X690Y2095D01*
X691Y2095D01*
X692Y2095D01*
X693Y2095D01*
X694Y2095D01*
X695Y2095D01*
X696Y2095D01*
X697Y2095D01*
X698Y2095D01*
X699Y2095D01*
X700Y2095D01*
X701Y2095D01*
X702Y2095D01*
X703Y2095D01*
X704Y2095D01*
X705Y2095D01*
X706Y2095D01*
X707Y2095D01*
X708Y2095D01*
X709Y2095D01*
X710Y2095D01*
X711Y2095D01*
X712Y2095D01*
X713Y2095D01*
X714Y2095D01*
X715Y2095D01*
X716Y2095D01*
X717Y2095D01*
X718Y2095D01*
X719Y2095D01*
X720Y2095D01*
X721Y2095D01*
X722Y2095D01*
X723Y2095D01*
X724Y2095D01*
X725Y2095D01*
X726Y2095D01*
X727Y2095D01*
X728Y2095D01*
X729Y2095D01*
X730Y2095D01*
X731Y2095D01*
X732Y2095D01*
X733Y2095D01*
X734Y2095D01*
X735Y2095D01*
X736Y2095D01*
X737Y2095D01*
X738Y2095D01*
X739Y2095D01*
X740Y2095D01*
X741Y2095D01*
X742Y2095D01*
X743Y2095D01*
X744Y2095D01*
X745Y2095D01*
X746Y2095D01*
X747Y2095D01*
X748Y2095D01*
X749Y2095D01*
X750Y2095D01*
X751Y2095D01*
X752Y2095D01*
X753Y2095D01*
X754Y2095D01*
X755Y2095D01*
X756Y2095D01*
X757Y2095D01*
X758Y2095D01*
X759Y2095D01*
X760Y2095D01*
X761Y2095D01*
X762Y2095D01*
X763Y2095D01*
X764Y2095D01*
X765Y2095D01*
X766Y2095D01*
X767Y2095D01*
X768Y2095D01*
X769Y2095D01*
X770Y2095D01*
X771Y2095D01*
X772Y2095D01*
X773Y2095D01*
X774Y2095D01*
X775Y2095D01*
X776Y2095D01*
X777Y2095D01*
X778Y2095D01*
X779Y2095D01*
X780Y2095D01*
X781Y2095D01*
X782Y2095D01*
X783Y2095D01*
X784Y2095D01*
X785Y2095D01*
X786Y2095D01*
X787Y2095D01*
X788Y2095D01*
X789Y2095D01*
X790Y2095D01*
X791Y2095D01*
X792Y2095D01*
X793Y2095D01*
X794Y2095D01*
X795Y2095D01*
X796Y2095D01*
X797Y2095D01*
X798Y2095D01*
X799Y2095D01*
X800Y2095D01*
X801Y2095D01*
X802Y2095D01*
X803Y2095D01*
X804Y2095D01*
X805Y2095D01*
X806Y2095D01*
X807Y2095D01*
X808Y2095D01*
X809Y2095D01*
X810Y2095D01*
X811Y2095D01*
X812Y2095D01*
X813Y2095D01*
X814Y2095D01*
X815Y2095D01*
X816Y2095D01*
X817Y2095D01*
X818Y2095D01*
X819Y2095D01*
X820Y2095D01*
X821Y2095D01*
X822Y2095D01*
X823Y2095D01*
X824Y2095D01*
X825Y2095D01*
X826Y2095D01*
X827Y2095D01*
X828Y2095D01*
X829Y2095D01*
X830Y2095D01*
X831Y2095D01*
X832Y2095D01*
X833Y2095D01*
X834Y2095D01*
X835Y2095D01*
X836Y2095D01*
X837Y2095D01*
X838Y2095D01*
X839Y2095D01*
X840Y2095D01*
X841Y2095D01*
X842Y2095D01*
X843Y2095D01*
X844Y2095D01*
X845Y2095D01*
X846Y2095D01*
X847Y2095D01*
X848Y2095D01*
X849Y2095D01*
X850Y2095D01*
X851Y2095D01*
X852Y2095D01*
X853Y2095D01*
X854Y2095D01*
X855Y2095D01*
X856Y2095D01*
X857Y2095D01*
X858Y2095D01*
X859Y2095D01*
X860Y2095D01*
X861Y2095D01*
X862Y2095D01*
X863Y2095D01*
X864Y2095D01*
X865Y2095D01*
X866Y2095D01*
X867Y2095D01*
X868Y2095D01*
X869Y2095D01*
X870Y2095D01*
X871Y2095D01*
X872Y2095D01*
X873Y2095D01*
X874Y2095D01*
X875Y2095D01*
X876Y2095D01*
X877Y2095D01*
X878Y2095D01*
X879Y2095D01*
X880Y2095D01*
X881Y2095D01*
X882Y2095D01*
X883Y2095D01*
X884Y2095D01*
X885Y2095D01*
X886Y2095D01*
X887Y2095D01*
X888Y2095D01*
X889Y2095D01*
X890Y2095D01*
X891Y2095D01*
X892Y2095D01*
X893Y2095D01*
X894Y2095D01*
X895Y2095D01*
X896Y2095D01*
X897Y2095D01*
X898Y2095D01*
X899Y2095D01*
X900Y2095D01*
X901Y2095D01*
X902Y2095D01*
X903Y2095D01*
X904Y2095D01*
X905Y2095D01*
X906Y2095D01*
X907Y2095D01*
X908Y2095D01*
X909Y2095D01*
X910Y2095D01*
X911Y2095D01*
X912Y2095D01*
X913Y2095D01*
X914Y2095D01*
X915Y2095D01*
X916Y2095D01*
X917Y2095D01*
X918Y2095D01*
X919Y2095D01*
X920Y2095D01*
X921Y2095D01*
X922Y2095D01*
X923Y2095D01*
X924Y2095D01*
X925Y2095D01*
X926Y2095D01*
X927Y2095D01*
X928Y2095D01*
X929Y2095D01*
X930Y2095D01*
X931Y2095D01*
X932Y2095D01*
X933Y2095D01*
X934Y2095D01*
X935Y2095D01*
X936Y2095D01*
X937Y2095D01*
X938Y2095D01*
X939Y2095D01*
X940Y2095D01*
X941Y2095D01*
X942Y2095D01*
X943Y2095D01*
X944Y2095D01*
X945Y2095D01*
X946Y2095D01*
X947Y2095D01*
X948Y2095D01*
X949Y2095D01*
X950Y2095D01*
X951Y2095D01*
X952Y2095D01*
X953Y2095D01*
X954Y2095D01*
X955Y2095D01*
X956Y2095D01*
X957Y2095D01*
X958Y2095D01*
X959Y2095D01*
X960Y2095D01*
X961Y2095D01*
X962Y2095D01*
X963Y2095D01*
X964Y2095D01*
X965Y2095D01*
X966Y2095D01*
X967Y2095D01*
X968Y2095D01*
X969Y2095D01*
X970Y2095D01*
X971Y2095D01*
X972Y2095D01*
X973Y2095D01*
X974Y2095D01*
X975Y2095D01*
X976Y2095D01*
X977Y2095D01*
X978Y2095D01*
X979Y2095D01*
X980Y2095D01*
X981Y2095D01*
X982Y2095D01*
X983Y2095D01*
X984Y2095D01*
X985Y2095D01*
X986Y2095D01*
X987Y2095D01*
X988Y2095D01*
X989Y2095D01*
X990Y2095D01*
X991Y2095D01*
X992Y2095D01*
X993Y2095D01*
X994Y2095D01*
X995Y2095D01*
X996Y2095D01*
X997Y2095D01*
X998Y2095D01*
X999Y2095D01*
X1000Y2095D01*
X1001Y2095D01*
X1002Y2095D01*
X1003Y2095D01*
X1004Y2095D01*
X1005Y2095D01*
X1006Y2095D01*
X1007Y2095D01*
X1008Y2095D01*
X1009Y2095D01*
X1010Y2095D01*
X1011Y2095D01*
X1012Y2095D01*
X1013Y2095D01*
X1014Y2095D01*
X1015Y2095D01*
X1016Y2095D01*
X1017Y2095D01*
X1018Y2095D01*
X1019Y2095D01*
X1020Y2094D01*
X1021Y2093D01*
X1022Y2092D01*
X1023Y2091D01*
X1024Y2090D01*
X1025Y2089D01*
X1026Y2088D01*
X1027Y2087D01*
X1028Y2086D01*
X1029Y2085D01*
X1030Y2084D01*
X1031Y2083D01*
X1032Y2082D01*
X1033Y2081D01*
X1034Y2080D01*
X1035Y2079D01*
X1036Y2078D01*
X1037Y2077D01*
X1038Y2076D01*
X1039Y2075D01*
X1040Y2074D01*
X1041Y2073D01*
X1042Y2072D01*
X1043Y2071D01*
X1044Y2070D01*
X1045Y2069D01*
X1046Y2068D01*
X1047Y2067D01*
X1048Y2066D01*
X1049Y2065D01*
X1050Y2064D01*
X1051Y2063D01*
X1052Y2062D01*
X1053Y2061D01*
X1054Y2060D01*
X1055Y2059D01*
X1056Y2058D01*
X1057Y2057D01*
X1058Y2056D01*
X1059Y2055D01*
X1060Y2054D01*
X1061Y2053D01*
X1062Y2052D01*
X1063Y2051D01*
X1064Y2050D01*
X1065Y2049D01*
X1066Y2048D01*
X1067Y2047D01*
X1068Y2046D01*
X1069Y2045D01*
X1070Y2044D01*
X1071Y2043D01*
X1072Y2042D01*
X1073Y2041D01*
X1074Y2040D01*
X1075Y2039D01*
X1076Y2038D01*
X1077Y2037D01*
X1078Y2036D01*
X1079Y2035D01*
X1080Y2034D01*
X1081Y2033D01*
X1082Y2032D01*
X1083Y2031D01*
X1084Y2030D01*
X1085Y2029D01*
X1086Y2028D01*
X1087Y2027D01*
X1088Y2026D01*
X1089Y2026D01*
X1090Y2025D01*
X1091Y2024D01*
X1092Y2023D01*
X1093Y2022D01*
X1094Y2021D01*
X1095Y2020D01*
X1096Y2019D01*
X1097Y2018D01*
X1098Y2017D01*
X1099Y2016D01*
X1100Y2015D01*
X1101Y2014D01*
X1102Y2013D01*
X1103Y2012D01*
X1104Y2011D01*
X1105Y2010D01*
X1106Y2009D01*
X1107Y2008D01*
X1108Y2007D01*
X1109Y2006D01*
X1110Y2005D01*
X1111Y2004D01*
X1112Y2003D01*
X1113Y2002D01*
X1114Y2001D01*
X1115Y2000D01*
X1116Y1999D01*
X1117Y1998D01*
X1118Y1997D01*
X1118Y1599D01*
X1119Y1598D01*
X1120Y1597D01*
X1121Y1596D01*
X1122Y1595D01*
X1123Y1594D01*
X1124Y1593D01*
X1125Y1592D01*
X1126Y1591D01*
X1127Y1590D01*
X1128Y1589D01*
X1129Y1588D01*
X1130Y1587D01*
X1131Y1586D01*
X1132Y1585D01*
X1133Y1584D01*
X1134Y1583D01*
X1135Y1582D01*
X1136Y1581D01*
X1137Y1580D01*
X1138Y1579D01*
X1139Y1578D01*
X1140Y1577D01*
X1141Y1576D01*
X1142Y1575D01*
X1143Y1574D01*
X1144Y1573D01*
X1145Y1572D01*
X1146Y1571D01*
X1147Y1570D01*
X1148Y1569D01*
X1149Y1568D01*
X1150Y1567D01*
X1151Y1566D01*
X1152Y1565D01*
X1153Y1564D01*
X1154Y1563D01*
X1155Y1562D01*
X1156Y1561D01*
X1157Y1560D01*
X1158Y1559D01*
X1159Y1558D01*
X1160Y1557D01*
X1161Y1556D01*
X1162Y1555D01*
X1163Y1554D01*
X1164Y1553D01*
X1165Y1552D01*
X1166Y1551D01*
X1167Y1550D01*
X1168Y1549D01*
X1169Y1548D01*
X1170Y1547D01*
X1171Y1546D01*
X1172Y1545D01*
X1173Y1544D01*
X1174Y1543D01*
X1175Y1542D01*
X1176Y1541D01*
X1177Y1540D01*
X1178Y1539D01*
X1179Y1538D01*
X1180Y1537D01*
X1181Y1536D01*
X1182Y1535D01*
X1183Y1534D01*
X1184Y1533D01*
X1185Y1532D01*
X1186Y1531D01*
X1187Y1530D01*
X1188Y1529D01*
X1189Y1528D01*
X1190Y1527D01*
X1191Y1526D01*
X1192Y1525D01*
X1193Y1524D01*
X1194Y1523D01*
X1195Y1522D01*
X1196Y1521D01*
X1197Y1520D01*
X1198Y1519D01*
X1199Y1518D01*
X1200Y1517D01*
X1201Y1516D01*
X1202Y1515D01*
X1203Y1514D01*
X1204Y1513D01*
X1205Y1512D01*
X1206Y1511D01*
X1207Y1510D01*
X1208Y1509D01*
X1209Y1508D01*
X1210Y1507D01*
X1211Y1506D01*
X1212Y1505D01*
X1213Y1504D01*
X1214Y1503D01*
X1215Y1502D01*
X1216Y1501D01*
X1217Y1500D01*
X1218Y1499D01*
X1218Y157D01*
X1217Y156D01*
X1216Y155D01*
X1215Y154D01*
X1214Y153D01*
X1213Y152D01*
X1212Y151D01*
X1211Y150D01*
X1210Y149D01*
X1209Y148D01*
X1208Y147D01*
X1207Y146D01*
X1206Y145D01*
X1205Y144D01*
X1204Y143D01*
X1203Y142D01*
X1202Y141D01*
X1201Y140D01*
X1200Y139D01*
X1199Y138D01*
X1198Y137D01*
X1197Y136D01*
X1196Y135D01*
X1195Y134D01*
X1194Y133D01*
X1193Y132D01*
X1192Y131D01*
X1191Y130D01*
X1190Y129D01*
X1189Y128D01*
X1188Y127D01*
X1187Y126D01*
X1186Y125D01*
X1185Y124D01*
X1184Y123D01*
X1183Y122D01*
X1182Y121D01*
X1181Y120D01*
X1180Y119D01*
X1179Y118D01*
X1178Y117D01*
X1177Y116D01*
X1176Y115D01*
X1175Y114D01*
X1174Y113D01*
X1173Y112D01*
X1172Y111D01*
X1171Y110D01*
X1170Y109D01*
X1169Y108D01*
X1168Y107D01*
X1167Y106D01*
X1166Y105D01*
X1165Y104D01*
X1164Y103D01*
X1163Y102D01*
X1162Y101D01*
X1161Y100D01*
X1160Y99D01*
X1159Y98D01*
X1158Y97D01*
X1157Y96D01*
X1156Y95D01*
X1155Y94D01*
X1154Y93D01*
X1153Y92D01*
X1152Y91D01*
X1151Y90D01*
X1150Y89D01*
X1149Y88D01*
X1148Y87D01*
X1147Y86D01*
X1146Y85D01*
X1145Y84D01*
X1144Y83D01*
X1143Y82D01*
X1142Y81D01*
X1141Y80D01*
X1140Y79D01*
X1139Y78D01*
X1138Y77D01*
X1137Y76D01*
X1136Y75D01*
X1135Y74D01*
X1134Y73D01*
X1133Y72D01*
X1132Y71D01*
X1131Y70D01*
X1130Y69D01*
X1129Y68D01*
X1128Y67D01*
X1127Y66D01*
X1126Y65D01*
X1125Y64D01*
X1124Y63D01*
X1123Y62D01*
X1122Y61D01*
X1121Y60D01*
X1120Y59D01*
X1119Y58D01*
X1118Y57D01*
X1118Y46D01*
X1119Y45D01*
X1119Y41D01*
X1118Y40D01*
X1118Y35D01*
X1117Y34D01*
X1117Y31D01*
X1116Y30D01*
X1116Y29D01*
X1115Y28D01*
X1115Y27D01*
X1114Y26D01*
X1114Y25D01*
X1113Y24D01*
X1113Y23D01*
X1112Y22D01*
X1111Y21D01*
X1110Y20D01*
X1109Y19D01*
X1108Y18D01*
X1107Y17D01*
X1106Y16D01*
X1105Y15D01*
X1104Y14D01*
X1103Y14D01*
X1102Y13D01*
X1101Y12D01*
X1100Y12D01*
X1099Y11D01*
X1098Y11D01*
X1097Y11D01*
X1096Y10D01*
X1095Y10D01*
X1094Y9D01*
X1093Y9D01*
X1092Y9D01*
X1091Y9D01*
X1090Y9D01*
X1089Y8D01*
X1088Y8D01*
X1087Y8D01*
X1086Y8D01*
X1085Y8D01*
X1084Y8D01*
X1083Y8D01*
X1082Y8D01*
X1081Y8D01*
X1080Y8D01*
X1079Y8D01*
X1078Y8D01*
X1077Y8D01*
X1076Y8D01*
X1075Y8D01*
X1074Y8D01*
X1073Y8D01*
X1072Y8D01*
X1071Y8D01*
X1070Y8D01*
X1069Y8D01*
X1068Y8D01*
X1067Y8D01*
X1066Y8D01*
X1065Y8D01*
X1064Y8D01*
X1063Y8D01*
X1062Y8D01*
X1061Y8D01*
X1060Y8D01*
X1059Y8D01*
X1058Y8D01*
X1057Y8D01*
X1056Y8D01*
X1055Y8D01*
X1054Y8D01*
X1053Y8D01*
X1052Y8D01*
X1051Y8D01*
X1050Y8D01*
X1049Y8D01*
X1048Y8D01*
X1047Y8D01*
X1046Y8D01*
X1045Y8D01*
X1044Y8D01*
X1043Y8D01*
X1042Y8D01*
X1041Y8D01*
X1040Y8D01*
X1039Y8D01*
X1038Y8D01*
X1037Y8D01*
X1036Y8D01*
X1035Y8D01*
X1034Y8D01*
X1033Y8D01*
X1032Y8D01*
X1031Y8D01*
X1030Y8D01*
X1029Y8D01*
X1028Y8D01*
X1027Y8D01*
X1026Y8D01*
X1025Y8D01*
X1024Y8D01*
X1023Y8D01*
X1022Y8D01*
X1021Y8D01*
X1020Y8D01*
X1019Y8D01*
X1018Y8D01*
X1017Y8D01*
X1016Y8D01*
X1015Y8D01*
X1014Y8D01*
X1013Y8D01*
X1012Y8D01*
X1011Y8D01*
X1010Y8D01*
X1009Y8D01*
X1008Y8D01*
X1007Y8D01*
X1006Y8D01*
X1005Y8D01*
X1004Y8D01*
X1003Y8D01*
X1002Y8D01*
X1001Y8D01*
X1000Y8D01*
X999Y8D01*
X998Y8D01*
X997Y8D01*
X996Y8D01*
X995Y8D01*
X994Y8D01*
X993Y8D01*
X992Y8D01*
X991Y8D01*
X990Y8D01*
X989Y8D01*
X988Y8D01*
X987Y8D01*
X986Y8D01*
X985Y8D01*
X984Y8D01*
X983Y8D01*
X982Y8D01*
X981Y8D01*
X980Y8D01*
X979Y8D01*
X978Y8D01*
X977Y8D01*
X976Y8D01*
X975Y8D01*
X974Y8D01*
X973Y8D01*
X972Y8D01*
X971Y8D01*
X970Y8D01*
X969Y8D01*
X968Y8D01*
X967Y8D01*
X966Y8D01*
X965Y8D01*
X964Y8D01*
X963Y8D01*
X962Y8D01*
X961Y8D01*
X960Y8D01*
X959Y8D01*
X958Y8D01*
X957Y8D01*
X956Y8D01*
X955Y8D01*
X954Y8D01*
X953Y8D01*
X952Y8D01*
X951Y8D01*
X950Y8D01*
X949Y8D01*
X948Y8D01*
X947Y8D01*
X946Y8D01*
X945Y8D01*
X944Y8D01*
X943Y8D01*
X942Y8D01*
X941Y8D01*
X940Y8D01*
X939Y8D01*
X938Y8D01*
X937Y8D01*
X936Y8D01*
X935Y8D01*
X934Y8D01*
X933Y8D01*
X932Y8D01*
X931Y8D01*
X930Y8D01*
X929Y8D01*
X928Y8D01*
X927Y8D01*
X926Y8D01*
X925Y8D01*
X924Y8D01*
X923Y8D01*
X922Y8D01*
X921Y8D01*
X920Y8D01*
X919Y8D01*
X918Y8D01*
X917Y8D01*
X916Y8D01*
X915Y8D01*
X914Y8D01*
X913Y8D01*
X912Y8D01*
X911Y8D01*
X910Y8D01*
X909Y8D01*
X908Y8D01*
X907Y8D01*
X906Y8D01*
X905Y8D01*
X904Y8D01*
X903Y8D01*
X902Y8D01*
X901Y8D01*
X900Y8D01*
X899Y8D01*
X898Y8D01*
X897Y8D01*
X896Y8D01*
X895Y8D01*
X894Y8D01*
X893Y8D01*
X892Y8D01*
X891Y8D01*
X890Y8D01*
X889Y8D01*
X888Y8D01*
X887Y8D01*
X886Y8D01*
X885Y8D01*
X884Y8D01*
X883Y8D01*
X882Y8D01*
X881Y8D01*
X880Y8D01*
X879Y8D01*
X878Y8D01*
X877Y8D01*
X876Y8D01*
X875Y8D01*
X874Y8D01*
X873Y8D01*
X872Y8D01*
X871Y8D01*
X870Y8D01*
X869Y8D01*
X868Y8D01*
X867Y8D01*
X866Y8D01*
X865Y8D01*
X864Y8D01*
X863Y8D01*
X862Y8D01*
X861Y8D01*
X860Y8D01*
X859Y8D01*
X858Y8D01*
X857Y8D01*
X856Y8D01*
X855Y8D01*
X854Y8D01*
X853Y8D01*
X852Y8D01*
X851Y8D01*
X850Y8D01*
X849Y8D01*
X848Y8D01*
X847Y8D01*
X846Y8D01*
X845Y8D01*
X844Y8D01*
X843Y8D01*
X842Y8D01*
X841Y8D01*
X840Y8D01*
X839Y8D01*
X838Y8D01*
X837Y8D01*
X836Y8D01*
X835Y8D01*
X834Y8D01*
X833Y8D01*
X832Y8D01*
X831Y8D01*
X830Y8D01*
X829Y8D01*
X828Y8D01*
X827Y8D01*
X826Y8D01*
X825Y8D01*
X824Y8D01*
X823Y8D01*
X822Y8D01*
X821Y8D01*
X820Y8D01*
X819Y8D01*
X818Y8D01*
X817Y8D01*
X816Y8D01*
X815Y8D01*
X814Y8D01*
X813Y8D01*
X812Y8D01*
X811Y8D01*
X810Y8D01*
X809Y8D01*
X808Y8D01*
X807Y8D01*
X806Y8D01*
X805Y8D01*
X804Y8D01*
X803Y8D01*
X802Y8D01*
X801Y8D01*
X800Y8D01*
X799Y8D01*
X798Y8D01*
X797Y8D01*
X796Y8D01*
X795Y8D01*
X794Y8D01*
X793Y8D01*
X792Y8D01*
X791Y8D01*
X790Y8D01*
X789Y8D01*
X788Y8D01*
X787Y8D01*
X786Y8D01*
X785Y8D01*
X784Y8D01*
X783Y8D01*
X782Y8D01*
X781Y8D01*
X780Y8D01*
X779Y8D01*
X778Y8D01*
X777Y8D01*
X776Y8D01*
X775Y8D01*
X774Y8D01*
X773Y8D01*
X772Y8D01*
X771Y8D01*
X770Y8D01*
X769Y8D01*
X768Y8D01*
X767Y8D01*
X766Y8D01*
X765Y8D01*
X764Y8D01*
X763Y8D01*
X762Y8D01*
X761Y8D01*
X760Y8D01*
X759Y8D01*
X758Y8D01*
X757Y8D01*
X756Y8D01*
X755Y8D01*
X754Y8D01*
X753Y8D01*
X752Y8D01*
X751Y8D01*
X750Y8D01*
X749Y8D01*
X748Y8D01*
X747Y8D01*
X746Y8D01*
X745Y8D01*
X744Y8D01*
X743Y8D01*
X742Y8D01*
X741Y8D01*
X740Y8D01*
X739Y8D01*
X738Y8D01*
X737Y8D01*
X736Y8D01*
X735Y8D01*
X734Y8D01*
X733Y8D01*
X732Y8D01*
X731Y8D01*
X730Y8D01*
X729Y8D01*
X728Y8D01*
X727Y8D01*
X726Y8D01*
X725Y8D01*
X724Y8D01*
X723Y8D01*
X722Y8D01*
X721Y8D01*
X720Y8D01*
X719Y8D01*
X718Y8D01*
X717Y8D01*
X716Y8D01*
X715Y8D01*
X714Y8D01*
X713Y8D01*
X712Y8D01*
X711Y8D01*
X710Y8D01*
X709Y8D01*
X708Y8D01*
X707Y8D01*
X706Y8D01*
X705Y8D01*
X704Y8D01*
X703Y8D01*
X702Y8D01*
X701Y8D01*
X700Y8D01*
X699Y8D01*
X698Y8D01*
X697Y8D01*
X696Y8D01*
X695Y8D01*
X694Y8D01*
X693Y8D01*
X692Y8D01*
X691Y8D01*
X690Y8D01*
X689Y8D01*
X688Y8D01*
X687Y8D01*
X686Y8D01*
X685Y8D01*
X684Y8D01*
X683Y8D01*
X682Y8D01*
X681Y8D01*
X680Y8D01*
X679Y8D01*
X678Y8D01*
X677Y8D01*
X676Y8D01*
X675Y8D01*
X674Y8D01*
X673Y8D01*
X672Y8D01*
X671Y8D01*
X670Y8D01*
X669Y8D01*
X668Y8D01*
X667Y8D01*
X666Y8D01*
X665Y8D01*
X664Y8D01*
X663Y8D01*
X662Y8D01*
X661Y8D01*
X660Y8D01*
X659Y8D01*
X658Y8D01*
X657Y8D01*
X656Y8D01*
X655Y8D01*
X654Y8D01*
X653Y8D01*
X652Y8D01*
X651Y8D01*
X650Y8D01*
X649Y8D01*
X648Y8D01*
X647Y8D01*
X646Y8D01*
X645Y8D01*
X644Y8D01*
X643Y8D01*
X642Y8D01*
X641Y8D01*
X640Y8D01*
X639Y8D01*
X638Y8D01*
X637Y8D01*
X636Y8D01*
X635Y8D01*
X634Y8D01*
X633Y8D01*
X632Y8D01*
X631Y8D01*
X630Y8D01*
X629Y8D01*
X628Y8D01*
X627Y8D01*
X626Y8D01*
X625Y8D01*
X624Y8D01*
X623Y8D01*
X622Y8D01*
X621Y8D01*
X620Y8D01*
X619Y8D01*
X618Y8D01*
X617Y8D01*
X616Y8D01*
X615Y8D01*
X614Y8D01*
X613Y8D01*
X612Y8D01*
X611Y8D01*
X610Y8D01*
X609Y8D01*
X608Y8D01*
X607Y8D01*
X606Y8D01*
X605Y8D01*
X604Y8D01*
X603Y8D01*
X602Y8D01*
X601Y8D01*
X600Y8D01*
X599Y8D01*
X598Y8D01*
X597Y8D01*
X596Y8D01*
X595Y8D01*
X594Y8D01*
X593Y8D01*
X592Y8D01*
X591Y8D01*
X590Y8D01*
X589Y8D01*
X588Y8D01*
X587Y8D01*
X586Y8D01*
X585Y8D01*
X584Y8D01*
X583Y8D01*
X582Y8D01*
X581Y8D01*
X580Y8D01*
X579Y8D01*
X578Y8D01*
X577Y8D01*
X576Y8D01*
X575Y8D01*
X574Y8D01*
X573Y8D01*
X572Y8D01*
X571Y8D01*
X570Y8D01*
X569Y8D01*
X568Y8D01*
X567Y8D01*
X566Y8D01*
X565Y8D01*
X564Y8D01*
X563Y8D01*
X562Y8D01*
X561Y8D01*
X560Y8D01*
X559Y8D01*
X558Y8D01*
X557Y8D01*
X556Y8D01*
X555Y8D01*
X554Y8D01*
X553Y8D01*
X552Y8D01*
X551Y8D01*
X550Y8D01*
X549Y8D01*
X548Y8D01*
X547Y8D01*
X546Y8D01*
X545Y8D01*
X544Y8D01*
X543Y8D01*
X542Y8D01*
X541Y8D01*
X540Y8D01*
X539Y8D01*
X538Y8D01*
X537Y8D01*
X536Y8D01*
X535Y8D01*
X534Y8D01*
X533Y8D01*
X532Y8D01*
X531Y8D01*
X530Y8D01*
X529Y8D01*
X528Y8D01*
X527Y8D01*
X526Y8D01*
X525Y8D01*
X524Y8D01*
X523Y8D01*
X522Y8D01*
X521Y8D01*
X520Y8D01*
X519Y8D01*
X518Y8D01*
X517Y8D01*
X516Y8D01*
X515Y8D01*
X514Y8D01*
X513Y8D01*
X512Y8D01*
X511Y8D01*
X510Y8D01*
X509Y8D01*
X508Y8D01*
X507Y8D01*
X506Y8D01*
X505Y8D01*
X504Y8D01*
X503Y8D01*
X502Y8D01*
X501Y8D01*
X500Y8D01*
X499Y8D01*
X498Y8D01*
X497Y8D01*
X496Y8D01*
X495Y8D01*
X494Y8D01*
X493Y8D01*
X492Y8D01*
X491Y8D01*
X490Y8D01*
X489Y8D01*
X488Y8D01*
X487Y8D01*
X486Y8D01*
X485Y8D01*
X484Y8D01*
X483Y8D01*
X482Y8D01*
X481Y8D01*
X480Y8D01*
X479Y8D01*
X478Y8D01*
X477Y8D01*
X476Y8D01*
X475Y8D01*
X474Y8D01*
X473Y8D01*
X472Y8D01*
X471Y8D01*
X470Y8D01*
X469Y8D01*
X468Y8D01*
X467Y8D01*
X466Y8D01*
X465Y8D01*
X464Y8D01*
X463Y8D01*
X462Y8D01*
X461Y8D01*
X460Y8D01*
X459Y8D01*
X458Y8D01*
X457Y8D01*
X456Y8D01*
X455Y8D01*
X454Y8D01*
X453Y8D01*
X452Y8D01*
X451Y8D01*
X450Y8D01*
X449Y8D01*
X448Y8D01*
X447Y8D01*
X446Y8D01*
X445Y8D01*
X444Y8D01*
X443Y8D01*
X442Y8D01*
X441Y8D01*
X440Y8D01*
X439Y8D01*
X438Y8D01*
X437Y8D01*
X436Y8D01*
X435Y8D01*
X434Y8D01*
X433Y8D01*
X432Y8D01*
X431Y8D01*
X430Y8D01*
X429Y8D01*
X428Y8D01*
X427Y8D01*
X426Y8D01*
X425Y8D01*
X424Y8D01*
X423Y8D01*
X422Y8D01*
X421Y8D01*
X420Y8D01*
X419Y8D01*
X418Y8D01*
X417Y8D01*
X416Y8D01*
X415Y8D01*
X414Y8D01*
X413Y8D01*
X412Y8D01*
X411Y8D01*
X410Y8D01*
X409Y8D01*
X408Y8D01*
X407Y8D01*
X406Y8D01*
X405Y8D01*
X404Y8D01*
X403Y8D01*
X402Y8D01*
X401Y8D01*
X400Y8D01*
X399Y8D01*
X398Y8D01*
X397Y8D01*
X396Y8D01*
X395Y8D01*
X394Y8D01*
X393Y8D01*
X392Y8D01*
X391Y8D01*
X390Y8D01*
X389Y8D01*
X388Y8D01*
X387Y8D01*
X386Y8D01*
X385Y8D01*
X384Y8D01*
X383Y8D01*
X382Y8D01*
X381Y8D01*
X380Y8D01*
X379Y8D01*
X378Y8D01*
X377Y8D01*
X376Y8D01*
X375Y8D01*
X374Y8D01*
X373Y8D01*
X372Y8D01*
X371Y8D01*
X370Y8D01*
X369Y8D01*
X368Y8D01*
X367Y8D01*
X366Y8D01*
X365Y8D01*
X364Y8D01*
X363Y8D01*
X362Y8D01*
X361Y8D01*
X360Y8D01*
X359Y8D01*
X358Y8D01*
X357Y8D01*
X356Y8D01*
X355Y8D01*
X354Y8D01*
X353Y8D01*
X352Y8D01*
X351Y8D01*
X350Y8D01*
X349Y8D01*
X348Y8D01*
X347Y8D01*
X346Y8D01*
X345Y8D01*
X344Y8D01*
X343Y8D01*
X342Y8D01*
X341Y8D01*
X340Y8D01*
X339Y8D01*
X338Y8D01*
X337Y8D01*
X336Y8D01*
X335Y8D01*
X334Y8D01*
X333Y8D01*
X332Y8D01*
X331Y8D01*
X330Y8D01*
X329Y8D01*
X328Y8D01*
X327Y8D01*
X326Y8D01*
X325Y8D01*
X324Y8D01*
X323Y8D01*
X322Y8D01*
X321Y8D01*
X320Y8D01*
X319Y8D01*
X318Y8D01*
X317Y8D01*
X316Y8D01*
X315Y8D01*
X314Y8D01*
X313Y8D01*
X312Y8D01*
X311Y8D01*
X310Y8D01*
X309Y8D01*
X308Y8D01*
X307Y8D01*
X306Y8D01*
X305Y8D01*
X304Y8D01*
X303Y8D01*
X302Y8D01*
X301Y8D01*
X300Y8D01*
X299Y8D01*
X298Y8D01*
X297Y8D01*
X296Y8D01*
X295Y8D01*
X294Y8D01*
X293Y8D01*
X292Y8D01*
X291Y8D01*
X290Y8D01*
X289Y8D01*
X288Y8D01*
X287Y8D01*
X286Y8D01*
X285Y8D01*
X284Y8D01*
X283Y8D01*
X282Y8D01*
X281Y8D01*
X280Y8D01*
X279Y8D01*
X278Y8D01*
X277Y8D01*
X276Y8D01*
X275Y8D01*
X274Y8D01*
X273Y8D01*
X272Y8D01*
X271Y8D01*
X270Y8D01*
X269Y8D01*
X268Y8D01*
X267Y8D01*
X266Y8D01*
X265Y8D01*
X264Y8D01*
X263Y8D01*
X262Y8D01*
X261Y8D01*
X260Y8D01*
X259Y8D01*
X258Y8D01*
X257Y8D01*
X256Y8D01*
X255Y8D01*
X254Y8D01*
X253Y8D01*
X252Y8D01*
X251Y8D01*
X250Y8D01*
X249Y8D01*
X248Y8D01*
X247Y8D01*
X246Y8D01*
X245Y8D01*
X244Y8D01*
X243Y8D01*
X242Y8D01*
X241Y8D01*
X240Y8D01*
X239Y8D01*
X238Y8D01*
X237Y8D01*
X236Y8D01*
X235Y8D01*
X234Y8D01*
X233Y8D01*
X232Y8D01*
X231Y8D01*
X230Y8D01*
X229Y8D01*
X228Y8D01*
X227Y8D01*
X226Y8D01*
X225Y8D01*
X224Y8D01*
X223Y8D01*
X222Y8D01*
X221Y8D01*
X220Y8D01*
X219Y8D01*
X218Y8D01*
X217Y8D01*
X216Y8D01*
X215Y8D01*
X214Y8D01*
X213Y8D01*
X212Y8D01*
X211Y8D01*
X210Y8D01*
X209Y8D01*
X208Y8D01*
X207Y8D01*
X206Y8D01*
X205Y8D01*
X204Y8D01*
X203Y8D01*
X202Y8D01*
X201Y8D01*
X200Y8D01*
X199Y8D01*
X198Y8D01*
X197Y8D01*
X196Y8D01*
X195Y8D01*
X194Y8D01*
X193Y8D01*
X192Y8D01*
X191Y8D01*
X190Y8D01*
X189Y8D01*
X188Y8D01*
X187Y8D01*
X186Y8D01*
X185Y8D01*
X184Y8D01*
X183Y8D01*
X182Y8D01*
X181Y8D01*
X180Y8D01*
X179Y8D01*
X178Y8D01*
X177Y8D01*
X176Y8D01*
X175Y8D01*
X174Y8D01*
X173Y8D01*
X172Y8D01*
X171Y8D01*
X170Y8D01*
X169Y8D01*
X168Y8D01*
X167Y8D01*
X166Y8D01*
X165Y8D01*
X164Y8D01*
X163Y8D01*
X162Y8D01*
X161Y8D01*
X160Y8D01*
X159Y8D01*
X158Y8D01*
X157Y8D01*
X156Y8D01*
X155Y8D01*
X154Y8D01*
X153Y8D01*
X152Y8D01*
X151Y8D01*
X150Y8D01*
X149Y8D01*
X148Y8D01*
X147Y8D01*
X146Y8D01*
X145Y8D01*
X144Y8D01*
X143Y8D01*
X142Y8D01*
X141Y8D01*
X140Y8D01*
X139Y8D01*
X138Y8D01*
X137Y8D01*
X136Y8D01*
X135Y8D01*
X134Y8D01*
X133Y8D01*
X132Y8D01*
X131Y8D01*
X130Y8D01*
X129Y8D01*
X128Y8D01*
X127Y8D01*
X126Y8D01*
X125Y8D01*
X124Y8D01*
X123Y8D01*
X122Y8D01*
X121Y8D01*
X120Y8D01*
X119Y8D01*
X118Y8D01*
X117Y8D01*
X116Y8D01*
X115Y8D01*
X114Y8D01*
X113Y8D01*
X112Y8D01*
X111Y8D01*
X110Y8D01*
X109Y8D01*
X108Y8D01*
X107Y8D01*
X106Y8D01*
X105Y8D01*
X104Y8D01*
X103Y8D01*
X102Y8D01*
X101Y8D01*
X100Y8D01*
X99Y8D01*
X98Y8D01*
X97Y8D01*
X96Y8D01*
X95Y8D01*
X94Y8D01*
X93Y8D01*
X92Y8D01*
X91Y8D01*
X90Y8D01*
X89Y8D01*
X88Y8D01*
X87Y8D01*
X86Y8D01*
X85Y8D01*
X84Y8D01*
X83Y8D01*
X82Y8D01*
X81Y8D01*
X80Y8D01*
X79Y8D01*
X78Y8D01*
X77Y8D01*
X76Y8D01*
X75Y8D01*
X74Y8D01*
X73Y8D01*
X72Y8D01*
X71Y8D01*
X70Y8D01*
X69Y8D01*
X68Y8D01*
X67Y8D01*
X66Y8D01*
X65Y8D01*
X64Y8D01*
X63Y8D01*
X62Y8D01*
X61Y8D01*
X60Y8D01*
X59Y8D01*
X58Y8D01*
X57Y8D01*
X56Y8D01*
X55Y8D01*
X54Y8D01*
X53Y8D01*
X52Y8D01*
X51Y8D01*
X50Y8D01*
X49Y8D01*
X48Y8D01*
X47Y8D01*
X46Y8D01*
X45Y8D01*
X44Y8D01*
X43Y8D01*
X42Y8D01*
X41Y8D01*
X40Y8D01*
X39Y8D01*
X38Y8D01*
X37Y8D01*
X36Y8D01*
X35Y9D01*
X34Y9D01*
X33Y9D01*
X32Y9D01*
X31Y10D01*
X30Y10D01*
X29Y10D01*
X28Y11D01*
X27Y11D01*
X26Y12D01*
X25Y12D01*
X24Y13D01*
X23Y13D01*
X22Y14D01*
X21Y15D01*
X20Y15D01*
X19Y16D01*
X18Y17D01*
X17Y18D01*
X16Y19D01*
X15Y20D01*
X14Y21D01*
X14Y22D01*
X13Y23D01*
X12Y24D01*
X12Y25D01*
X11Y26D01*
X11Y27D01*
X10Y28D01*
X10Y29D01*
X9Y30D01*
X9Y32D01*
X8Y33D01*
X8Y36D01*
X7Y37D01*
X7Y2067D01*
X8Y2068D01*
X8Y2071D01*
X9Y2072D01*
X9Y2073D01*
X10Y2074D01*
X10Y2076D01*
X11Y2077D01*
X12Y2078D01*
X12Y2079D01*
X13Y2080D01*
X13Y2081D01*
X14Y2082D01*
X15Y2083D01*
X16Y2084D01*
X17Y2085D01*
X18Y2086D01*
X19Y2087D01*
X20Y2088D01*
X21Y2089D01*
X22Y2089D01*
X23Y2090D01*
X24Y2091D01*
X25Y2091D01*
X26Y2092D01*
X27Y2092D01*
X28Y2093D01*
X29Y2093D01*
X30Y2093D01*
X31Y2094D01*
X32Y2094D01*
X33Y2094D01*
X34Y2095D01*
D02*
G04 End of contour*
M02*