; NON-PLATED HOLES START AT T1
; THROUGH (PLATED) HOLES START AT T100
M48
INCH
T100C0.035000
T101C0.015748
T102C0.100000
T103C0.038000
%
T100
X006296Y010003
X001196Y015003
X006296Y015003
X006296Y013003
X006196Y006003
X006296Y008003
X001196Y012003
X006296Y012003
X001196Y011003
X006296Y011003
X001196Y014003
X001196Y009003
X007196Y006003
X006296Y009003
X001196Y010003
X006296Y014003
X001196Y013003
X001196Y008003
T101
X002196Y008003
X005196Y009003
X007196Y015003
X002196Y009003
T102
X008196Y011003
X010596Y011003
X009396Y012903
T103
X004196Y005003
X009196Y019003
X002196Y001003
X008196Y001003
X009196Y020003
X004196Y020003
X009196Y003003
X006196Y020003
X003196Y005003
X009196Y005003
X001196Y001003
X009196Y004003
X007196Y001003
X002196Y005003
X006196Y001003
X009196Y006003
X001196Y020003
X009196Y007003
X009196Y016003
X004196Y001003
X001196Y005003
X009196Y008003
X005196Y001003
X009196Y017003
X002196Y020003
X009196Y018003
X003196Y020003
X005196Y020003
X003196Y001003
T00
M30
