G04 MADE WITH FRITZING*
G04 WWW.FRITZING.ORG*
G04 DOUBLE SIDED*
G04 HOLES PLATED*
G04 CONTOUR ON CENTER OF CONTOUR VECTOR*
%ASAXBY*%
%FSLAX23Y23*%
%MOIN*%
%OFA0B0*%
%SFA1.0B1.0*%
%ADD10C,0.088000*%
%ADD11C,0.049370*%
%ADD12C,0.085000*%
%ADD13C,0.150000*%
%ADD14R,0.085000X0.085000*%
%LNMASK1*%
G90*
G70*
G54D10*
X920Y2000D03*
X920Y1900D03*
X920Y1800D03*
X920Y1700D03*
X920Y1600D03*
G54D11*
X520Y900D03*
X720Y1500D03*
X220Y800D03*
X220Y900D03*
G54D10*
X120Y500D03*
X220Y500D03*
X320Y500D03*
X420Y500D03*
G54D12*
X720Y600D03*
X620Y600D03*
G54D10*
X220Y2000D03*
X320Y2000D03*
X420Y2000D03*
X520Y2000D03*
X620Y2000D03*
X820Y100D03*
X720Y100D03*
X620Y100D03*
X520Y100D03*
X420Y100D03*
X320Y100D03*
X220Y100D03*
X120Y100D03*
G54D13*
X820Y1100D03*
X1060Y1100D03*
X940Y1290D03*
G54D10*
X920Y700D03*
X920Y600D03*
X920Y500D03*
X920Y400D03*
X920Y300D03*
X920Y700D03*
X920Y600D03*
X920Y500D03*
X920Y400D03*
X920Y300D03*
X1020Y300D03*
X1020Y400D03*
X1020Y500D03*
X1020Y600D03*
X1020Y700D03*
G54D14*
X720Y600D03*
G04 End of Mask1*
M02*