G04 MADE WITH FRITZING*
G04 WWW.FRITZING.ORG*
G04 DOUBLE SIDED*
G04 HOLES PLATED*
G04 CONTOUR ON CENTER OF CONTOUR VECTOR*
%ASAXBY*%
%FSLAX23Y23*%
%MOIN*%
%OFA0B0*%
%SFA1.0B1.0*%
%ADD10C,0.078000*%
%ADD11C,0.039370*%
%ADD12C,0.075000*%
%ADD13C,0.140000*%
%ADD14R,0.075000X0.075000*%
%ADD15C,0.024000*%
%LNCOPPER0*%
G90*
G70*
G54D10*
X920Y2000D03*
X920Y1900D03*
X920Y1800D03*
X920Y1700D03*
X920Y1600D03*
G54D11*
X520Y900D03*
X720Y1500D03*
X220Y800D03*
X220Y900D03*
G54D10*
X120Y500D03*
X220Y500D03*
X320Y500D03*
X420Y500D03*
G54D12*
X720Y600D03*
X620Y600D03*
G54D10*
X220Y2000D03*
X320Y2000D03*
X420Y2000D03*
X520Y2000D03*
X620Y2000D03*
X820Y100D03*
X720Y100D03*
X620Y100D03*
X520Y100D03*
X420Y100D03*
X320Y100D03*
X220Y100D03*
X120Y100D03*
G54D13*
X820Y1100D03*
X1060Y1100D03*
X940Y1290D03*
G54D12*
X120Y1400D03*
X120Y1300D03*
X120Y1200D03*
X120Y1100D03*
X120Y1000D03*
X120Y900D03*
X120Y800D03*
X630Y800D03*
X120Y1500D03*
X630Y1300D03*
X630Y1200D03*
X630Y1100D03*
X630Y1000D03*
X630Y900D03*
X630Y1500D03*
X630Y1400D03*
G54D10*
X920Y700D03*
X920Y600D03*
X920Y500D03*
X920Y400D03*
X920Y300D03*
X920Y700D03*
X920Y600D03*
X920Y500D03*
X920Y400D03*
X920Y300D03*
X1020Y300D03*
X1020Y400D03*
X1020Y500D03*
X1020Y600D03*
X1020Y700D03*
G54D14*
X720Y600D03*
X630Y800D03*
X630Y1400D03*
G54D15*
X419Y1600D02*
X140Y1321D01*
D02*
X919Y1600D02*
X419Y1600D01*
D02*
X892Y1589D02*
X919Y1600D01*
D02*
X419Y1701D02*
X140Y1421D01*
D02*
X919Y1701D02*
X419Y1701D01*
D02*
X891Y1709D02*
X919Y1701D01*
D02*
X270Y725D02*
X136Y525D01*
D02*
X375Y1300D02*
X270Y725D01*
D02*
X601Y1300D02*
X375Y1300D01*
D02*
X322Y717D02*
X233Y528D01*
D02*
X427Y1201D02*
X322Y717D01*
D02*
X601Y1200D02*
X427Y1201D01*
D02*
X467Y1100D02*
X601Y1100D01*
D02*
X358Y665D02*
X467Y1100D01*
D02*
X327Y530D02*
X358Y665D01*
D02*
X415Y661D02*
X415Y512D01*
D02*
X491Y999D02*
X415Y661D01*
D02*
X415Y512D02*
X408Y528D01*
D02*
X601Y1000D02*
X491Y999D01*
D02*
X201Y800D02*
X148Y800D01*
D02*
X201Y900D02*
X148Y900D01*
D02*
X601Y900D02*
X520Y900D01*
D02*
X520Y900D02*
X601Y900D01*
D02*
X736Y624D02*
X1025Y1050D01*
D02*
X721Y1302D02*
X1007Y1132D01*
D02*
X658Y1370D02*
X721Y1302D01*
D02*
X520Y701D02*
X520Y399D01*
D02*
X520Y399D02*
X890Y308D01*
D02*
X608Y781D02*
X520Y701D01*
D02*
X701Y1500D02*
X658Y1500D01*
G04 End of Copper0*
M02*