<?xml version="1.0" encoding="UTF-8" standalone="no"?>
<svg
   xmlns:dc="http://purl.org/dc/elements/1.1/"
   xmlns:cc="http://creativecommons.org/ns#"
   xmlns:rdf="http://www.w3.org/1999/02/22-rdf-syntax-ns#"
   xmlns:svg="http://www.w3.org/2000/svg"
   xmlns="http://www.w3.org/2000/svg"
   xmlns:sodipodi="http://sodipodi.sourceforge.net/DTD/sodipodi-0.dtd"
   xmlns:inkscape="http://www.inkscape.org/namespaces/inkscape"
   version="1.1"
   id="Your_Icon"
   x="0px"
   y="0px"
   width="113.59"
   height="51.563"
   viewBox="0 0 113.59 51.563"
   enable-background="new 0 0 100 100"
   xml:space="preserve"
   inkscape:version="0.48.4 r9939"
   sodipodi:docname="icon_20561.svg"
   inkscape:export-filename="/home/gerrit/Code/openpump/ui/syringe.png"
   inkscape:export-xdpi="87.160004"
   inkscape:export-ydpi="87.160004"><metadata
     id="metadata9"><rdf:RDF><cc:Work
         rdf:about=""><dc:format>image/svg+xml</dc:format><dc:type
           rdf:resource="http://purl.org/dc/dcmitype/StillImage" /><dc:title></dc:title></cc:Work></rdf:RDF></metadata><defs
     id="defs7" /><sodipodi:namedview
     pagecolor="#ffffff"
     bordercolor="#666666"
     borderopacity="1"
     objecttolerance="10"
     gridtolerance="10"
     guidetolerance="10"
     inkscape:pageopacity="0"
     inkscape:pageshadow="2"
     inkscape:window-width="640"
     inkscape:window-height="480"
     id="namedview5"
     showgrid="false"
     fit-margin-top="10"
     fit-margin-left="10"
     fit-margin-right="10"
     fit-margin-bottom="10"
     inkscape:zoom="2.36"
     inkscape:cx="56.794"
     inkscape:cy="25.781"
     inkscape:window-x="502"
     inkscape:window-y="139"
     inkscape:window-maximized="0"
     inkscape:current-layer="Your_Icon" /><path
     d="m 83.86,18.902 6.538,0 c 0.862,0 2.269,3.079 2.269,6.88 0,3.799 -1.467,6.879 -2.329,6.879 l -35.287,0 0,-0.035 c -0.054,0.024 -0.108,0.035 -0.164,0.035 -0.885,0 -1.603,-3.08 -1.603,-6.879 0,-3.799 0.718,-6.88 1.603,-6.88 0.056,0 0.11,0.012 0.164,0.035 l 0,-0.035 6.052,0 c 0.341,1.042 0.669,2.934 0.669,5.519 l 0.9,0 c 0,-1.629 -0.155,-3.931 -0.627,-5.519 l 4.512,0 c 0.34,1.041 0.668,2.933 0.668,5.519 l 0.9,0 c 0,-1.629 -0.155,-3.931 -0.627,-5.519 l 4.512,0 c 0.341,1.041 0.669,2.933 0.669,5.519 l 0.9,0 c 0,-1.629 -0.155,-3.931 -0.627,-5.519 l 4.512,0 c 0.341,1.041 0.669,2.933 0.669,5.519 l 0.9,0 c 0,-1.629 -0.156,-3.931 -0.627,-5.519 l 4.512,0 c 0.341,1.041 0.669,2.933 0.669,5.519 l 0.899,0 c 0,-1.629 -0.155,-3.931 -0.626,-5.519 z M 35.221,10 c 1.739,0 2.843,3.102 3.469,6.941 l 52.585,0 c 1.437,0 2.941,3.137 3.41,6.661 l 7.76,0 c 0.152,0 0.299,0.059 0.41,0.163 0.075,0.07 0.734,0.728 0.734,2.017 0,1.33 -0.672,1.961 -0.748,2.028 -0.109,0.097 -0.251,0.149 -0.396,0.149 l -7.76,0 c -0.469,3.525 -1.974,6.662 -3.41,6.662 l -52.585,0 c -0.626,3.841 -1.729,6.942 -3.469,6.942 -1.94,0 -3.089,-3.861 -3.666,-8.303 l -15.791,0 c -0.485,2.425 -1.287,4.338 -2.551,4.338 -2.541,0 -3.213,-7.73 -3.213,-11.817 0,-4.088 0.672,-11.818 3.213,-11.818 1.264,0 2.065,1.913 2.551,4.338 l 15.791,0 C 32.132,13.86 33.28,10 35.221,10 z M 15.226,25.782 c 0,-7.424 -1.527,-10.618 -2.013,-10.618 -0.486,0 -2.013,3.194 -2.013,10.618 0,7.423 1.527,10.617 2.013,10.617 0.486,0 2.013,-3.194 2.013,-10.617 z m 1.2,0 c 0,1.729 -0.121,4.107 -0.452,6.279 l 18.799,0 c 0.367,-0.33 1.037,-2.477 1.037,-6.279 0,-3.802 -0.67,-5.95 -1.037,-6.28 l -18.799,0 c 0.331,2.172 0.452,4.551 0.452,6.28 z m 78.408,-0.979 0,1.958 7.322,0 c 0.1,-0.169 0.233,-0.487 0.233,-0.979 0,-0.478 -0.135,-0.8 -0.24,-0.979 l -7.315,0 z m -3.584,-6.664 -52.377,0.002 0.022,0.215 c 0.129,0.998 0.229,2.023 0.302,3.041 l 0.035,0.354 0.125,2.076 c 10e-4,0.012 10e-4,0.023 10e-4,0.036 l 0,4.232 c 0,0.017 -10e-4,0.034 -0.002,0.052 l -0.108,1.251 c -0.077,1.3 -0.197,2.627 -0.365,3.906 l -0.011,0.117 52.403,0 c 0.55,-0.152 2.359,-3.2 2.359,-7.641 0.001,-4.439 -1.809,-7.486 -2.384,-7.641 z M 35.221,11.2 c -0.711,0 -1.848,2.422 -2.478,7.102 l 2.096,0 c 0.76,0 1.314,0.812 1.695,2.482 0.307,1.342 0.475,3.117 0.475,4.998 0,0.766 -0.061,7.479 -2.17,7.479 l -2.096,0 c 0.629,4.68 1.767,7.103 2.478,7.103 0.688,0 1.776,-2.263 2.417,-6.647 l 0.339,-3.562 0.107,-1.236 c 0.047,-0.985 0.073,-2.028 0.073,-3.137 0,-1.1 -0.026,-2.135 -0.072,-3.112 L 38.036,21.847 37.64,17.868 C 37,13.47 35.91,11.2 35.221,11.2 z"
     id="path3"
     inkscape:connector-curvature="0" /></svg>